<svg width="561" height="121" viewBox="0 0 561 121" fill="none" xmlns="http://www.w3.org/2000/svg">
<path d="M39.176 0.119999V43H28.616V10.296H11.016V43H0.456V0.119999H39.176ZM82.0075 39.16C78.8502 42.36 74.6902 43.96 69.5275 43.96C64.3648 43.96 60.2048 42.36 57.0475 39.16C53.8902 35.96 52.3115 31.9067 52.3115 27C52.3115 22.136 53.8902 18.104 57.0475 14.904C60.2048 11.6613 64.3648 10.04 69.5275 10.04C74.6902 10.04 78.8502 11.6613 82.0075 14.904C85.1648 18.104 86.7435 22.136 86.7435 27C86.7435 31.9067 85.1648 35.96 82.0075 39.16ZM64.2795 32.312C65.6448 33.6773 67.3942 34.36 69.5275 34.36C71.6608 34.36 73.4102 33.6773 74.7755 32.312C76.1408 30.904 76.8235 29.1547 76.8235 27.064C76.8235 24.9307 76.1408 23.16 74.7755 21.752C73.4528 20.344 71.7035 19.64 69.5275 19.64C67.3515 19.64 65.5808 20.344 64.2155 21.752C62.8928 23.16 62.2315 24.9307 62.2315 27.064C62.2315 29.1547 62.9142 30.904 64.2795 32.312ZM131.209 11V33.72H136.713V49.784H127.305V43H106.249V49.784H96.8415V33.72H98.3775C99.0175 33.72 99.5082 33.6987 99.8495 33.656C100.191 33.5707 100.575 33.4 101.001 33.144C101.471 32.888 101.833 32.4187 102.089 31.736C102.345 31.0107 102.495 30.0933 102.537 28.984C102.751 25.1013 102.879 19.1067 102.921 11H131.209ZM111.241 33.72H121.289V20.408H112.201C112.201 21.5173 112.116 24.12 111.945 28.216C111.817 30.5627 111.583 32.3973 111.241 33.72ZM181.997 11V33.72H187.501V49.784H178.093V43H157.037V49.784H147.629V33.72H149.165C149.805 33.72 150.296 33.6987 150.637 33.656C150.978 33.5707 151.362 33.4 151.789 33.144C152.258 32.888 152.621 32.4187 152.877 31.736C153.133 31.0107 153.282 30.0933 153.325 28.984C153.538 25.1013 153.666 19.1067 153.709 11H181.997ZM162.029 33.72H172.077V20.408H162.989C162.989 21.5173 162.904 24.12 162.733 28.216C162.605 30.5627 162.37 32.3973 162.029 33.72ZM214.254 10.04C219.588 10.04 223.79 11.96 226.862 15.8C229.934 19.5973 231.15 24.4187 230.51 30.264H207.47C207.812 31.5867 208.537 32.696 209.646 33.592C210.756 34.488 212.185 35.0213 213.934 35.192C215.172 35.2773 216.366 35.1067 217.518 34.68C218.67 34.2107 219.502 33.5707 220.014 32.76H230.318C229.337 36.3013 227.353 39.0533 224.366 41.016C221.422 42.9787 217.988 43.96 214.062 43.96C208.857 43.96 204.782 42.3387 201.838 39.096C198.937 35.8107 197.486 31.7787 197.486 27C197.486 22.136 199.044 18.104 202.158 14.904C205.316 11.6613 209.348 10.04 214.254 10.04ZM214.19 18.744C212.612 18.744 211.225 19.128 210.03 19.896C208.878 20.6213 208.068 21.624 207.598 22.904H220.718C219.78 20.1307 217.604 18.744 214.19 18.744ZM263.72 10.04C268.072 10.04 271.613 11.6613 274.344 14.904C277.117 18.104 278.504 22.1787 278.504 27.128C278.504 32.12 277.096 36.1733 274.28 39.288C271.507 42.4027 267.987 43.96 263.72 43.96C261.587 43.96 259.667 43.512 257.96 42.616C256.253 41.72 254.888 40.5467 253.864 39.096H253.608V55.8H243.752V11H253.608V14.904H253.864C254.888 13.4533 256.253 12.28 257.96 11.384C259.667 10.488 261.587 10.04 263.72 10.04ZM261.032 34.616C263.165 34.616 264.936 33.912 266.344 32.504C267.752 31.0533 268.456 29.2187 268.456 27C268.456 24.7813 267.752 22.968 266.344 21.56C264.936 20.1093 263.165 19.384 261.032 19.384C258.899 19.384 257.128 20.1093 255.72 21.56C254.312 23.0107 253.608 24.824 253.608 27C253.608 29.1333 254.291 30.9467 255.656 32.44C257.064 33.8907 258.856 34.616 261.032 34.616ZM337.114 11L330.01 23.224C331.802 23.48 333.295 24.248 334.49 25.528C335.684 26.7653 336.282 28.3867 336.282 30.392V43H326.362V33.528C326.362 32.1627 325.615 31.48 324.122 31.48H318.618V43H308.698V31.48H303.066C301.572 31.48 300.826 32.1627 300.826 33.528V43H290.906V30.392C290.906 28.3867 291.503 26.7653 292.698 25.528C293.892 24.248 295.386 23.48 297.178 23.224L290.074 11H300.57L307.226 23.16H308.698V11H318.618V23.16H319.962L326.618 11H337.114ZM360.622 28.472L372.654 11H382.574V43H372.654V25.528L360.622 43H350.702V11H360.622V28.472ZM422.388 26.296V26.488C424.266 27 425.695 27.9387 426.676 29.304C427.658 30.6267 428.148 32.1627 428.148 33.912C428.148 36.344 427.295 38.4773 425.588 40.312C423.924 42.104 421.535 43 418.42 43H397.364V11H416.82C420.02 11 422.452 11.832 424.116 13.496C425.823 15.16 426.676 17.1653 426.676 19.512C426.676 22.712 425.247 24.9733 422.388 26.296ZM414.452 18.744H407.284V23.096H414.452C415.178 23.096 415.732 22.8827 416.116 22.456C416.543 21.9867 416.756 21.4533 416.756 20.856C416.756 20.2587 416.564 19.768 416.18 19.384C415.796 18.9573 415.22 18.744 414.452 18.744ZM407.284 35.256H415.668C416.436 35.256 417.034 35.0213 417.46 34.552C417.93 34.0827 418.164 33.528 418.164 32.888C418.164 32.248 417.951 31.7147 417.524 31.288C417.098 30.8613 416.479 30.648 415.668 30.648H407.284V35.256ZM464.009 14.904V11H473.865V43H464.009V39.096H463.753C462.729 40.5467 461.364 41.72 459.657 42.616C457.95 43.512 456.03 43.96 453.897 43.96C449.63 43.96 446.089 42.4027 443.273 39.288C440.5 36.1733 439.113 32.12 439.113 27.128C439.113 22.1787 440.478 18.104 443.209 14.904C445.982 11.6613 449.545 10.04 453.897 10.04C456.03 10.04 457.95 10.488 459.657 11.384C461.364 12.28 462.729 13.4533 463.753 14.904H464.009ZM456.585 34.616C458.761 34.616 460.532 33.8907 461.897 32.44C463.305 30.9467 464.009 29.1333 464.009 27C464.009 24.824 463.305 23.0107 461.897 21.56C460.489 20.1093 458.718 19.384 456.585 19.384C454.452 19.384 452.681 20.1093 451.273 21.56C449.865 22.968 449.161 24.7813 449.161 27C449.161 29.2187 449.865 31.0533 451.273 32.504C452.681 33.912 454.452 34.616 456.585 34.616ZM503.355 10.04C508.688 10.04 512.891 11.96 515.963 15.8C519.035 19.5973 520.251 24.4187 519.611 30.264H496.571C496.912 31.5867 497.637 32.696 498.747 33.592C499.856 34.488 501.285 35.0213 503.035 35.192C504.272 35.2773 505.467 35.1067 506.619 34.68C507.771 34.2107 508.603 33.5707 509.115 32.76H519.419C518.437 36.3013 516.453 39.0533 513.467 41.016C510.523 42.9787 507.088 43.96 503.163 43.96C497.957 43.96 493.883 42.3387 490.939 39.096C488.037 35.8107 486.587 31.7787 486.587 27C486.587 22.136 488.144 18.104 491.259 14.904C494.416 11.6613 498.448 10.04 503.355 10.04ZM503.291 18.744C501.712 18.744 500.325 19.128 499.131 19.896C497.979 20.6213 497.168 21.624 496.699 22.904H509.819C508.88 20.1307 506.704 18.744 503.291 18.744ZM560.195 11V20.472H550.147V43H540.227V20.472H530.115V11H560.195ZM126.784 84.736L117.696 94.592C120.597 94.976 123.072 96.192 125.12 98.24C127.211 100.245 128.256 102.997 128.256 106.496C128.256 110.421 126.976 113.664 124.416 116.224C121.899 118.741 118.763 120 115.008 120H96.32V109.76H113.664C114.901 109.76 115.883 109.419 116.608 108.736C117.333 108.011 117.696 107.157 117.696 106.176C117.696 105.237 117.333 104.427 116.608 103.744C115.925 103.061 114.944 102.72 113.664 102.72H104.192V96.64L112.64 87.36H96.32V77.12H126.784V84.736ZM141.17 103.04V94.08C141.17 88.704 142.834 84.3733 146.162 81.088C149.533 77.8027 153.778 76.16 158.898 76.16C163.975 76.16 168.199 77.8027 171.57 81.088C174.983 84.3307 176.69 88.6187 176.69 93.952V103.04C176.69 108.416 174.962 112.747 171.506 116.032C168.093 119.317 163.826 120.96 158.706 120.96C153.629 120.96 149.426 119.317 146.098 116.032C142.813 112.704 141.17 108.373 141.17 103.04ZM151.73 94.08V103.04C151.73 105.429 152.37 107.264 153.65 108.544C154.93 109.781 156.615 110.4 158.706 110.4C160.882 110.4 162.653 109.76 164.018 108.48C165.426 107.2 166.13 105.387 166.13 103.04V93.952C166.13 91.648 165.447 89.856 164.082 88.576C162.759 87.2533 161.031 86.592 158.898 86.592C156.765 86.592 155.037 87.2533 153.714 88.576C152.391 89.856 151.73 91.6907 151.73 94.08ZM245.407 88V120H235.487V109.696H227.423C225.332 109.696 224.287 110.677 224.287 112.64V120H214.303V112.192C214.303 108.651 215.754 106.496 218.655 105.728V105.536C215.882 103.872 214.495 101.419 214.495 98.176C214.495 95.36 215.519 92.9707 217.567 91.008C219.658 89.0027 222.58 88 226.335 88H245.407ZM227.103 102.08H235.487V96.832H227.103C226.207 96.832 225.503 97.1093 224.991 97.664C224.479 98.176 224.223 98.7947 224.223 99.52C224.223 100.203 224.479 100.8 224.991 101.312C225.503 101.824 226.207 102.08 227.103 102.08ZM283.096 103.36V103.552C284.803 104.107 286.104 105.067 287 106.432C287.896 107.755 288.344 109.248 288.344 110.912C288.344 113.301 287.448 115.413 285.656 117.248C283.864 119.083 281.39 120 278.232 120H258.776V110.848H276.312C276.824 110.848 277.208 110.699 277.464 110.4C277.763 110.059 277.912 109.675 277.912 109.248C277.912 108.309 277.422 107.84 276.44 107.84H264.856V99.904H275.608C276.078 99.904 276.462 99.776 276.76 99.52C277.059 99.2213 277.208 98.88 277.208 98.496C277.208 98.112 277.059 97.792 276.76 97.536C276.462 97.2373 276.056 97.088 275.544 97.088H258.776V87.936H277.208C280.451 87.936 282.968 88.7893 284.76 90.496C286.595 92.2027 287.512 94.208 287.512 96.512C287.512 97.9627 287.128 99.328 286.36 100.608C285.592 101.845 284.504 102.763 283.096 103.36ZM311.072 97.024H318.048C321.803 97.024 324.704 98.1547 326.752 100.416C328.843 102.677 329.888 105.365 329.888 108.48C329.888 111.595 328.843 114.304 326.752 116.608C324.704 118.869 321.803 120 318.048 120H301.152V88H311.072V97.024ZM332.064 120V88H341.984V120H332.064ZM311.072 111.168H317.28C318.176 111.168 318.88 110.891 319.392 110.336C319.904 109.739 320.16 109.056 320.16 108.288C320.16 107.477 319.904 106.795 319.392 106.24C318.88 105.685 318.176 105.408 317.28 105.408H311.072V111.168ZM388.56 88L381.584 100.224C383.376 100.48 384.869 101.248 386.064 102.528C387.259 103.765 387.856 105.387 387.856 107.392V120H377.936V110.528C377.936 109.163 377.189 108.48 375.696 108.48H366.672V120H356.752V88H366.672V100.16H371.28L377.808 88H388.56ZM429.633 116.16C426.475 119.36 422.315 120.96 417.153 120.96C411.99 120.96 407.83 119.36 404.673 116.16C401.515 112.96 399.937 108.907 399.937 104C399.937 99.136 401.515 95.104 404.673 91.904C407.83 88.6613 411.99 87.04 417.153 87.04C422.315 87.04 426.475 88.6613 429.633 91.904C432.79 95.104 434.369 99.136 434.369 104C434.369 108.907 432.79 112.96 429.633 116.16ZM411.905 109.312C413.27 110.677 415.019 111.36 417.153 111.36C419.286 111.36 421.035 110.677 422.401 109.312C423.766 107.904 424.449 106.155 424.449 104.064C424.449 101.931 423.766 100.16 422.401 98.752C421.078 97.344 419.329 96.64 417.153 96.64C414.977 96.64 413.206 97.344 411.841 98.752C410.518 100.16 409.857 101.931 409.857 104.064C409.857 106.155 410.539 107.904 411.905 109.312ZM472.476 103.296V103.488C474.353 104 475.783 104.939 476.764 106.304C477.745 107.627 478.236 109.163 478.236 110.912C478.236 113.344 477.383 115.477 475.676 117.312C474.012 119.104 471.623 120 468.508 120H447.452V88H466.908C470.108 88 472.54 88.832 474.204 90.496C475.911 92.16 476.764 94.1653 476.764 96.512C476.764 99.712 475.335 101.973 472.476 103.296ZM464.54 95.744H457.372V100.096H464.54C465.265 100.096 465.82 99.8827 466.204 99.456C466.631 98.9867 466.844 98.4533 466.844 97.856C466.844 97.2587 466.652 96.768 466.268 96.384C465.884 95.9573 465.308 95.744 464.54 95.744ZM457.372 112.256H465.756C466.524 112.256 467.121 112.021 467.548 111.552C468.017 111.083 468.252 110.528 468.252 109.888C468.252 109.248 468.039 108.715 467.612 108.288C467.185 107.861 466.567 107.648 465.756 107.648H457.372V112.256Z" fill="#A6FFFA" fill-opacity="0.38"/>
<path d="M39.176 0.119999H40.176V-0.880001H39.176V0.119999ZM39.176 43V44H40.176V43H39.176ZM28.616 43H27.616V44H28.616V43ZM28.616 10.296H29.616V9.296H28.616V10.296ZM11.016 10.296V9.296H10.016V10.296H11.016ZM11.016 43V44H12.016V43H11.016ZM0.456 43H-0.544V44H0.456V43ZM0.456 0.119999V-0.880001H-0.544V0.119999H0.456ZM38.176 0.119999V43H40.176V0.119999H38.176ZM39.176 42H28.616V44H39.176V42ZM29.616 43V10.296H27.616V43H29.616ZM28.616 9.296H11.016V11.296H28.616V9.296ZM10.016 10.296V43H12.016V10.296H10.016ZM11.016 42H0.456V44H11.016V42ZM1.456 43V0.119999H-0.544V43H1.456ZM0.456 1.12H39.176V-0.880001H0.456V1.12ZM57.0475 39.16L57.7593 38.4577L57.7593 38.4577L57.0475 39.16ZM57.0475 14.904L57.7594 15.6064L57.764 15.6016L57.0475 14.904ZM82.0075 14.904L81.291 15.6016L81.2957 15.6063L82.0075 14.904ZM64.2795 32.312L63.5616 33.0081L63.567 33.0137L63.5724 33.0191L64.2795 32.312ZM74.7755 32.312L75.4826 33.0191L75.488 33.0137L75.4934 33.0081L74.7755 32.312ZM74.7755 21.752L74.0467 22.4367L74.0521 22.4425L74.0576 22.4481L74.7755 21.752ZM64.2155 21.752L63.4976 21.0559L63.4921 21.0615L63.4867 21.0673L64.2155 21.752ZM81.2957 38.4577C78.3545 41.4385 74.4658 42.96 69.5275 42.96V44.96C74.9145 44.96 79.3458 43.2815 82.7193 39.8623L81.2957 38.4577ZM69.5275 42.96C64.5892 42.96 60.7005 41.4385 57.7593 38.4577L56.3357 39.8623C59.7092 43.2815 64.1405 44.96 69.5275 44.96V42.96ZM57.7593 38.4577C54.8044 35.4628 53.3115 31.6702 53.3115 27H51.3115C51.3115 32.1431 52.9759 36.4572 56.3357 39.8623L57.7593 38.4577ZM53.3115 27C53.3115 22.3751 54.8027 18.603 57.7593 15.6063L56.3357 14.2017C52.9777 17.605 51.3115 21.8968 51.3115 27H53.3115ZM57.764 15.6016C60.706 12.5801 64.5932 11.04 69.5275 11.04V9.04C64.1364 9.04 59.7037 10.7426 56.331 14.2064L57.764 15.6016ZM69.5275 11.04C74.4618 11.04 78.349 12.5801 81.291 15.6016L82.724 14.2064C79.3513 10.7426 74.9186 9.04 69.5275 9.04V11.04ZM81.2957 15.6063C84.2523 18.603 85.7435 22.3751 85.7435 27H87.7435C87.7435 21.8968 86.0773 17.605 82.7193 14.2017L81.2957 15.6063ZM85.7435 27C85.7435 31.6702 84.2506 35.4628 81.2957 38.4577L82.7193 39.8623C86.0791 36.4572 87.7435 32.1431 87.7435 27H85.7435ZM63.5724 33.0191C65.1458 34.5925 67.1595 35.36 69.5275 35.36V33.36C67.6289 33.36 66.1439 32.7622 64.9866 31.6049L63.5724 33.0191ZM69.5275 35.36C71.8955 35.36 73.9092 34.5925 75.4826 33.0191L74.0684 31.6049C72.9111 32.7622 71.4261 33.36 69.5275 33.36V35.36ZM75.4934 33.0081C77.0524 31.4004 77.8235 29.3956 77.8235 27.064H75.8235C75.8235 28.9137 75.2293 30.4076 74.0576 31.6159L75.4934 33.0081ZM77.8235 27.064C77.8235 24.6958 77.0563 22.6676 75.4934 21.0559L74.0576 22.4481C75.2253 23.6524 75.8235 25.1655 75.8235 27.064H77.8235ZM75.5043 21.0673C73.9679 19.4317 71.9411 18.64 69.5275 18.64V20.64C71.4659 20.64 72.9378 21.2563 74.0467 22.4367L75.5043 21.0673ZM69.5275 18.64C67.1136 18.64 65.0728 19.4314 63.4976 21.0559L64.9334 22.4481C66.0888 21.2566 67.5894 20.64 69.5275 20.64V18.64ZM63.4867 21.0673C61.971 22.6808 61.2315 24.7051 61.2315 27.064H63.2315C63.2315 25.1562 63.8147 23.6392 64.9443 22.4367L63.4867 21.0673ZM61.2315 27.064C61.2315 29.3956 62.0026 31.4004 63.5616 33.0081L64.9974 31.6159C63.8257 30.4076 63.2315 28.9137 63.2315 27.064H61.2315ZM131.209 11H132.209V10H131.209V11ZM131.209 33.72H130.209V34.72H131.209V33.72ZM136.713 33.72H137.713V32.72H136.713V33.72ZM136.713 49.784V50.784H137.713V49.784H136.713ZM127.305 49.784H126.305V50.784H127.305V49.784ZM127.305 43H128.305V42H127.305V43ZM106.249 43V42H105.249V43H106.249ZM106.249 49.784V50.784H107.249V49.784H106.249ZM96.8415 49.784H95.8415V50.784H96.8415V49.784ZM96.8415 33.72V32.72H95.8415V33.72H96.8415ZM99.8495 33.656L99.9735 34.6483L100.033 34.6408L100.092 34.6261L99.8495 33.656ZM101.001 33.144L100.523 32.2661L100.505 32.2759L100.487 32.2865L101.001 33.144ZM102.089 31.736L103.026 32.0871L103.029 32.078L103.032 32.0688L102.089 31.736ZM102.537 28.984L101.539 28.9291L101.539 28.9373L101.538 28.9456L102.537 28.984ZM102.921 11V10H101.927L101.922 10.9947L102.921 11ZM111.241 33.72L110.273 33.4701L109.951 34.72H111.241V33.72ZM121.289 33.72V34.72H122.289V33.72H121.289ZM121.289 20.408H122.289V19.408H121.289V20.408ZM112.201 20.408V19.408H111.201V20.408H112.201ZM111.945 28.216L112.944 28.2705L112.945 28.2576L111.945 28.216ZM130.209 11V33.72H132.209V11H130.209ZM131.209 34.72H136.713V32.72H131.209V34.72ZM135.713 33.72V49.784H137.713V33.72H135.713ZM136.713 48.784H127.305V50.784H136.713V48.784ZM128.305 49.784V43H126.305V49.784H128.305ZM127.305 42H106.249V44H127.305V42ZM105.249 43V49.784H107.249V43H105.249ZM106.249 48.784H96.8415V50.784H106.249V48.784ZM97.8415 49.784V33.72H95.8415V49.784H97.8415ZM96.8415 34.72H98.3775V32.72H96.8415V34.72ZM98.3775 34.72C99.0302 34.72 99.57 34.6987 99.9735 34.6483L99.7255 32.6637C99.4464 32.6986 99.0048 32.72 98.3775 32.72V34.72ZM100.092 34.6261C100.56 34.5093 101.037 34.289 101.516 34.0015L100.487 32.2865C100.113 32.511 99.8221 32.6321 99.607 32.6859L100.092 34.6261ZM101.48 34.0219C102.226 33.615 102.716 32.9126 103.026 32.0871L101.153 31.3849C100.951 31.9248 100.715 32.161 100.523 32.2661L101.48 34.0219ZM103.032 32.0688C103.333 31.217 103.492 30.1918 103.537 29.0224L101.538 28.9456C101.498 29.9949 101.358 30.8044 101.147 31.4032L103.032 32.0688ZM103.536 29.0389C103.751 25.1301 103.879 19.1148 103.921 11.0053L101.922 10.9947C101.879 19.0985 101.751 25.0726 101.539 28.9291L103.536 29.0389ZM102.921 12H131.209V10H102.921V12ZM111.241 34.72H121.289V32.72H111.241V34.72ZM122.289 33.72V20.408H120.289V33.72H122.289ZM121.289 19.408H112.201V21.408H121.289V19.408ZM111.201 20.408C111.201 21.4921 111.117 24.0717 110.946 28.1744L112.945 28.2576C113.115 24.1683 113.201 21.5426 113.201 20.408H111.201ZM110.947 28.1615C110.82 30.4821 110.59 32.241 110.273 33.4701L112.21 33.9699C112.575 32.5536 112.815 30.6433 112.944 28.2705L110.947 28.1615ZM181.997 11H182.997V10H181.997V11ZM181.997 33.72H180.997V34.72H181.997V33.72ZM187.501 33.72H188.501V32.72H187.501V33.72ZM187.501 49.784V50.784H188.501V49.784H187.501ZM178.093 49.784H177.093V50.784H178.093V49.784ZM178.093 43H179.093V42H178.093V43ZM157.037 43V42H156.037V43H157.037ZM157.037 49.784V50.784H158.037V49.784H157.037ZM147.629 49.784H146.629V50.784H147.629V49.784ZM147.629 33.72V32.72H146.629V33.72H147.629ZM150.637 33.656L150.761 34.6483L150.821 34.6408L150.88 34.6261L150.637 33.656ZM151.789 33.144L151.31 32.2661L151.292 32.2759L151.275 32.2865L151.789 33.144ZM152.877 31.736L153.813 32.0871L153.817 32.078L153.82 32.0688L152.877 31.736ZM153.325 28.984L152.327 28.9291L152.326 28.9373L152.326 28.9456L153.325 28.984ZM153.709 11V10H152.714L152.709 10.9947L153.709 11ZM162.029 33.72L161.061 33.4701L160.738 34.72H162.029V33.72ZM172.077 33.72V34.72H173.077V33.72H172.077ZM172.077 20.408H173.077V19.408H172.077V20.408ZM162.989 20.408V19.408H161.989V20.408H162.989ZM162.733 28.216L163.732 28.2705L163.732 28.2576L162.733 28.216ZM180.997 11V33.72H182.997V11H180.997ZM181.997 34.72H187.501V32.72H181.997V34.72ZM186.501 33.72V49.784H188.501V33.72H186.501ZM187.501 48.784H178.093V50.784H187.501V48.784ZM179.093 49.784V43H177.093V49.784H179.093ZM178.093 42H157.037V44H178.093V42ZM156.037 43V49.784H158.037V43H156.037ZM157.037 48.784H147.629V50.784H157.037V48.784ZM148.629 49.784V33.72H146.629V49.784H148.629ZM147.629 34.72H149.165V32.72H147.629V34.72ZM149.165 34.72C149.818 34.72 150.357 34.6987 150.761 34.6483L150.513 32.6637C150.234 32.6986 149.792 32.72 149.165 32.72V34.72ZM150.88 34.6261C151.347 34.5093 151.824 34.289 152.303 34.0015L151.275 32.2865C150.9 32.511 150.61 32.6321 150.394 32.6859L150.88 34.6261ZM152.268 34.0219C153.014 33.615 153.504 32.9126 153.813 32.0871L151.941 31.3849C151.738 31.9248 151.503 32.161 151.31 32.2661L152.268 34.0219ZM153.82 32.0688C154.121 31.217 154.279 30.1918 154.324 29.0224L152.326 28.9456C152.285 29.9949 152.145 30.8044 151.934 31.4032L153.82 32.0688ZM154.323 29.0389C154.538 25.1301 154.666 19.1148 154.709 11.0053L152.709 10.9947C152.666 19.0985 152.538 25.0726 152.327 28.9291L154.323 29.0389ZM153.709 12H181.997V10H153.709V12ZM162.029 34.72H172.077V32.72H162.029V34.72ZM173.077 33.72V20.408H171.077V33.72H173.077ZM172.077 19.408H162.989V21.408H172.077V19.408ZM161.989 20.408C161.989 21.4921 161.905 24.0717 161.734 28.1744L163.732 28.2576C163.903 24.1683 163.989 21.5426 163.989 20.408H161.989ZM161.734 28.1615C161.608 30.4821 161.378 32.241 161.061 33.4701L162.997 33.9699C163.363 32.5536 163.602 30.6433 163.732 28.2705L161.734 28.1615ZM226.862 15.8L226.082 16.4247L226.085 16.4289L226.862 15.8ZM230.51 30.264V31.264H231.407L231.505 30.3728L230.51 30.264ZM207.47 30.264V29.264H206.18L206.502 30.5139L207.47 30.264ZM209.646 33.592L209.018 34.3699L209.018 34.3699L209.646 33.592ZM213.934 35.192L213.837 36.1873L213.852 36.1887L213.866 36.1896L213.934 35.192ZM217.518 34.68L217.866 35.6177L217.881 35.6122L217.896 35.6061L217.518 34.68ZM220.014 32.76V31.76H219.463L219.169 32.226L220.014 32.76ZM230.318 32.76L231.282 33.027L231.633 31.76H230.318V32.76ZM224.366 41.016L223.817 40.1803L223.812 40.1839L224.366 41.016ZM201.838 39.096L201.089 39.758L201.098 39.7682L201.838 39.096ZM202.158 14.904L201.442 14.2064L201.442 14.2065L202.158 14.904ZM210.03 19.896L210.563 20.7423L210.571 20.7372L210.03 19.896ZM207.598 22.904L206.66 22.5597L206.167 23.904H207.598V22.904ZM220.718 22.904V23.904H222.113L221.666 22.5834L220.718 22.904ZM214.254 11.04C219.313 11.04 223.217 12.844 226.082 16.4247L227.643 15.1753C224.364 11.076 219.862 9.04 214.254 9.04V11.04ZM226.085 16.4289C228.956 19.9778 230.134 24.517 229.516 30.1552L231.505 30.3728C232.167 24.3204 230.913 19.2169 227.64 15.1711L226.085 16.4289ZM230.51 29.264H207.47V31.264H230.51V29.264ZM206.502 30.5139C206.9 32.0541 207.75 33.3453 209.018 34.3699L210.275 32.8141C209.325 32.0467 208.724 31.1193 208.439 30.0141L206.502 30.5139ZM209.018 34.3699C210.312 35.4146 211.939 36.0021 213.837 36.1873L214.032 34.1967C212.431 34.0406 211.2 33.5614 210.275 32.8141L209.018 34.3699ZM213.866 36.1896C215.243 36.2846 216.58 36.0941 217.866 35.6177L217.171 33.7423C216.153 34.1192 215.101 34.27 214.003 34.1944L213.866 36.1896ZM217.896 35.6061C219.184 35.0814 220.208 34.3269 220.86 33.294L219.169 32.226C218.797 32.8144 218.157 33.3399 217.141 33.7539L217.896 35.6061ZM220.014 33.76H230.318V31.76H220.014V33.76ZM229.355 32.493C228.436 35.808 226.595 38.3548 223.817 40.1803L224.916 41.8517C228.111 39.7519 230.238 36.7947 231.282 33.027L229.355 32.493ZM223.812 40.1839C221.05 42.0253 217.813 42.96 214.062 42.96V44.96C218.163 44.96 221.795 43.932 224.921 41.8481L223.812 40.1839ZM214.062 42.96C209.081 42.96 205.298 41.4183 202.579 38.4238L201.098 39.7682C204.267 43.259 208.633 44.96 214.062 44.96V42.96ZM202.588 38.4341C199.863 35.3485 198.486 31.5587 198.486 27H196.486C196.486 31.9987 198.011 36.2728 201.089 39.7579L202.588 38.4341ZM198.486 27C198.486 22.371 199.959 18.5973 202.875 15.6015L201.442 14.2065C198.128 17.6107 196.486 21.901 196.486 27H198.486ZM202.875 15.6016C205.827 12.5696 209.593 11.04 214.254 11.04V9.04C209.103 9.04 204.804 10.7531 201.442 14.2064L202.875 15.6016ZM214.19 17.744C212.442 17.744 210.863 18.1718 209.49 19.0548L210.571 20.7372C211.587 20.0842 212.781 19.744 214.19 19.744V17.744ZM209.498 19.0498C208.158 19.8931 207.205 21.0725 206.66 22.5597L208.537 23.2483C208.931 22.1755 209.599 21.3496 210.563 20.7422L209.498 19.0498ZM207.598 23.904H220.718V21.904H207.598V23.904ZM221.666 22.5834C221.134 21.0116 220.226 19.7728 218.92 18.9407C217.627 18.1169 216.027 17.744 214.19 17.744V19.744C215.767 19.744 216.962 20.0644 217.845 20.6273C218.715 21.1819 219.365 22.0231 219.771 23.2246L221.666 22.5834ZM274.344 14.904L273.579 15.5481L273.584 15.5536L273.588 15.5589L274.344 14.904ZM274.28 39.288L273.538 38.6173L273.533 38.623L274.28 39.288ZM257.96 42.616L258.425 41.7306L258.425 41.7306L257.96 42.616ZM253.864 39.096L254.681 38.5193L254.382 38.096H253.864V39.096ZM253.608 39.096V38.096H252.608V39.096H253.608ZM253.608 55.8V56.8H254.608V55.8H253.608ZM243.752 55.8H242.752V56.8H243.752V55.8ZM243.752 11V10H242.752V11H243.752ZM253.608 11H254.608V10H253.608V11ZM253.608 14.904H252.608V15.904H253.608V14.904ZM253.864 14.904V15.904H254.382L254.681 15.4807L253.864 14.904ZM257.96 11.384L258.425 12.2694L258.425 12.2694L257.96 11.384ZM266.344 32.504L267.051 33.2111L267.056 33.2058L267.062 33.2005L266.344 32.504ZM266.344 21.56L265.626 22.2565L265.632 22.2618L265.637 22.2671L266.344 21.56ZM255.72 21.56L256.438 22.2565L256.438 22.2565L255.72 21.56ZM255.656 32.44L254.918 33.1148L254.928 33.1258L254.938 33.1365L255.656 32.44ZM263.72 11.04C267.786 11.04 271.044 12.5379 273.579 15.5481L275.109 14.2599C272.182 10.7847 268.358 9.04 263.72 9.04V11.04ZM273.588 15.5589C276.178 18.5471 277.504 22.3764 277.504 27.128H279.504C279.504 21.981 278.057 17.6609 275.1 14.2491L273.588 15.5589ZM277.504 27.128C277.504 31.9217 276.158 35.7202 273.538 38.6174L275.022 39.9586C278.034 36.6265 279.504 32.3183 279.504 27.128H277.504ZM273.533 38.623C270.955 41.519 267.709 42.96 263.72 42.96V44.96C268.264 44.96 272.059 43.2863 275.027 39.953L273.533 38.623ZM263.72 42.96C261.731 42.96 259.973 42.5436 258.425 41.7306L257.495 43.5014C259.36 44.4804 261.442 44.96 263.72 44.96V42.96ZM258.425 41.7306C256.846 40.9018 255.606 39.8298 254.681 38.5193L253.047 39.6727C254.17 41.2635 255.661 42.5382 257.495 43.5014L258.425 41.7306ZM253.864 38.096H253.608V40.096H253.864V38.096ZM252.608 39.096V55.8H254.608V39.096H252.608ZM253.608 54.8H243.752V56.8H253.608V54.8ZM244.752 55.8V11H242.752V55.8H244.752ZM243.752 12H253.608V10H243.752V12ZM252.608 11V14.904H254.608V11H252.608ZM253.608 15.904H253.864V13.904H253.608V15.904ZM254.681 15.4807C255.606 14.1702 256.846 13.0982 258.425 12.2694L257.495 10.4986C255.661 11.4618 254.17 12.7365 253.047 14.3273L254.681 15.4807ZM258.425 12.2694C259.973 11.4564 261.731 11.04 263.72 11.04V9.04C261.442 9.04 259.36 9.51955 257.495 10.4986L258.425 12.2694ZM261.032 35.616C263.41 35.616 265.441 34.821 267.051 33.2111L265.637 31.7969C264.431 33.003 262.921 33.616 261.032 33.616V35.616ZM267.062 33.2005C268.669 31.5442 269.456 29.451 269.456 27H267.456C267.456 28.9864 266.835 30.5625 265.626 31.8075L267.062 33.2005ZM269.456 27C269.456 24.5493 268.669 22.4706 267.051 20.8529L265.637 22.2671C266.835 23.4654 267.456 25.0134 267.456 27H269.456ZM267.062 20.8635C265.454 19.2072 263.419 18.384 261.032 18.384V20.384C262.912 20.384 264.418 21.0115 265.626 22.2565L267.062 20.8635ZM261.032 18.384C258.645 18.384 256.61 19.2072 255.002 20.8635L256.438 22.2565C257.646 21.0115 259.152 20.384 261.032 20.384V18.384ZM255.002 20.8635C253.399 22.5159 252.608 24.5858 252.608 27H254.608C254.608 25.0622 255.225 23.5054 256.438 22.2565L255.002 20.8635ZM252.608 27C252.608 29.3682 253.374 31.4264 254.918 33.1148L256.394 31.7652C255.207 30.4669 254.608 28.8985 254.608 27H252.608ZM254.938 33.1365C256.55 34.797 258.609 35.616 261.032 35.616V33.616C259.103 33.616 257.578 32.9843 256.374 31.7435L254.938 33.1365ZM337.114 11L337.978 11.5025L338.851 10H337.114V11ZM330.01 23.224L329.145 22.7215L328.4 24.0042L329.868 24.2139L330.01 23.224ZM334.49 25.528L333.758 26.2103L333.764 26.2165L333.77 26.2226L334.49 25.528ZM336.282 43V44H337.282V43H336.282ZM326.362 43H325.362V44H326.362V43ZM318.618 31.48V30.48H317.618V31.48H318.618ZM318.618 43V44H319.618V43H318.618ZM308.698 43H307.698V44H308.698V43ZM308.698 31.48H309.698V30.48H308.698V31.48ZM300.826 43V44H301.826V43H300.826ZM290.906 43H289.906V44H290.906V43ZM292.698 25.528L293.417 26.2226L293.423 26.2165L293.429 26.2103L292.698 25.528ZM297.178 23.224L297.319 24.2139L298.787 24.0042L298.042 22.7215L297.178 23.224ZM290.074 11V10H288.336L289.209 11.5025L290.074 11ZM300.57 11L301.447 10.5199L301.162 10H300.57V11ZM307.226 23.16L306.348 23.6401L306.633 24.16H307.226V23.16ZM308.698 23.16V24.16H309.698V23.16H308.698ZM308.698 11V10H307.698V11H308.698ZM318.618 11H319.618V10H318.618V11ZM318.618 23.16H317.618V24.16H318.618V23.16ZM319.962 23.16V24.16H320.554L320.839 23.6401L319.962 23.16ZM326.618 11V10H326.025L325.74 10.5199L326.618 11ZM336.249 10.4975L329.145 22.7215L330.874 23.7265L337.978 11.5025L336.249 10.4975ZM329.868 24.2139C331.442 24.4389 332.725 25.1031 333.758 26.2103L335.221 24.8457C333.865 23.3929 332.161 22.5211 330.151 22.234L329.868 24.2139ZM333.77 26.2226C334.755 27.2427 335.282 28.5996 335.282 30.392H337.282C337.282 28.1737 336.613 26.2879 335.209 24.8334L333.77 26.2226ZM335.282 30.392V43H337.282V30.392H335.282ZM336.282 42H326.362V44H336.282V42ZM327.362 43V33.528H325.362V43H327.362ZM327.362 33.528C327.362 32.667 327.122 31.8443 326.476 31.254C325.848 30.6792 325.001 30.48 324.122 30.48V32.48C324.735 32.48 325.009 32.6222 325.127 32.73C325.228 32.8224 325.362 33.0237 325.362 33.528H327.362ZM324.122 30.48H318.618V32.48H324.122V30.48ZM317.618 31.48V43H319.618V31.48H317.618ZM318.618 42H308.698V44H318.618V42ZM309.698 43V31.48H307.698V43H309.698ZM308.698 30.48H303.066V32.48H308.698V30.48ZM303.066 30.48C302.186 30.48 301.339 30.6792 300.711 31.254C300.065 31.8443 299.826 32.667 299.826 33.528H301.826C301.826 33.0237 301.959 32.8224 302.06 32.73C302.178 32.6222 302.452 32.48 303.066 32.48V30.48ZM299.826 33.528V43H301.826V33.528H299.826ZM300.826 42H290.906V44H300.826V42ZM291.906 43V30.392H289.906V43H291.906ZM291.906 30.392C291.906 28.5996 292.432 27.2427 293.417 26.2226L291.978 24.8334C290.574 26.2879 289.906 28.1737 289.906 30.392H291.906ZM293.429 26.2103C294.462 25.1031 295.745 24.4389 297.319 24.2139L297.036 22.234C295.026 22.5211 293.322 23.3929 291.966 24.8457L293.429 26.2103ZM298.042 22.7215L290.938 10.4975L289.209 11.5025L296.313 23.7265L298.042 22.7215ZM290.074 12H300.57V10H290.074V12ZM299.692 11.4801L306.348 23.6401L308.103 22.6799L301.447 10.5199L299.692 11.4801ZM307.226 24.16H308.698V22.16H307.226V24.16ZM309.698 23.16V11H307.698V23.16H309.698ZM308.698 12H318.618V10H308.698V12ZM317.618 11V23.16H319.618V11H317.618ZM318.618 24.16H319.962V22.16H318.618V24.16ZM320.839 23.6401L327.495 11.4801L325.74 10.5199L319.084 22.6799L320.839 23.6401ZM326.618 12H337.114V10H326.618V12ZM360.622 28.472H359.622V31.6873L361.446 29.0392L360.622 28.472ZM372.654 11V10H372.128L371.83 10.4328L372.654 11ZM382.574 11H383.574V10H382.574V11ZM382.574 43V44H383.574V43H382.574ZM372.654 43H371.654V44H372.654V43ZM372.654 25.528H373.654V22.3127L371.83 24.9608L372.654 25.528ZM360.622 43V44H361.148L361.446 43.5672L360.622 43ZM350.702 43H349.702V44H350.702V43ZM350.702 11V10H349.702V11H350.702ZM360.622 11H361.622V10H360.622V11ZM361.446 29.0392L373.478 11.5672L371.83 10.4328L359.798 27.9048L361.446 29.0392ZM372.654 12H382.574V10H372.654V12ZM381.574 11V43H383.574V11H381.574ZM382.574 42H372.654V44H382.574V42ZM373.654 43V25.528H371.654V43H373.654ZM371.83 24.9608L359.798 42.4328L361.446 43.5672L373.478 26.0952L371.83 24.9608ZM360.622 42H350.702V44H360.622V42ZM351.702 43V11H349.702V43H351.702ZM350.702 12H360.622V10H350.702V12ZM359.622 11V28.472H361.622V11H359.622ZM422.388 26.296L421.969 25.3884L421.388 25.6568V26.296H422.388ZM422.388 26.488H421.388V27.2518L422.125 27.4528L422.388 26.488ZM426.676 29.304L425.864 29.8876L425.869 29.8938L425.873 29.8998L426.676 29.304ZM425.588 40.312L424.856 39.6309L424.856 39.6315L425.588 40.312ZM397.364 43H396.364V44H397.364V43ZM397.364 11V10H396.364V11H397.364ZM424.116 13.496L423.409 14.2032L423.418 14.212L424.116 13.496ZM407.284 18.744V17.744H406.284V18.744H407.284ZM407.284 23.096H406.284V24.096H407.284V23.096ZM416.116 22.456L415.377 21.7833L415.373 21.787L416.116 22.456ZM416.18 19.384L415.437 20.053L415.455 20.0725L415.473 20.0911L416.18 19.384ZM407.284 35.256H406.284V36.256H407.284V35.256ZM417.46 34.552L416.753 33.8449L416.737 33.8617L416.721 33.8793L417.46 34.552ZM417.524 31.288L416.817 31.9951L416.817 31.9951L417.524 31.288ZM407.284 30.648V29.648H406.284V30.648H407.284ZM421.388 26.296V26.488H423.388V26.296H421.388ZM422.125 27.4528C423.818 27.9144 425.038 28.7371 425.864 29.8876L427.489 28.7204C426.353 27.1402 424.714 26.0856 422.652 25.5232L422.125 27.4528ZM425.873 29.8998C426.719 31.0391 427.148 32.3631 427.148 33.912H429.148C429.148 31.9623 428.597 30.2142 427.48 28.7082L425.873 29.8998ZM427.148 33.912C427.148 36.0829 426.397 37.9751 424.856 39.6309L426.321 40.9931C428.194 38.9796 429.148 36.6051 429.148 33.912H427.148ZM424.856 39.6315C423.43 41.1673 421.338 42 418.42 42V44C421.732 44 424.419 43.0407 426.321 40.9925L424.856 39.6315ZM418.42 42H397.364V44H418.42V42ZM398.364 43V11H396.364V43H398.364ZM397.364 12H416.82V10H397.364V12ZM416.82 12C419.853 12 421.992 12.7861 423.409 14.2031L424.824 12.7889C422.913 10.8779 420.188 10 416.82 10V12ZM423.418 14.212C424.935 15.6911 425.676 17.4397 425.676 19.512H427.676C427.676 16.891 426.711 14.6289 424.815 12.78L423.418 14.212ZM425.676 19.512C425.676 20.9603 425.354 22.1319 424.759 23.0737C424.165 24.0145 423.255 24.7934 421.969 25.3884L422.808 27.2036C424.381 26.476 425.615 25.4628 426.45 24.1423C427.284 22.8228 427.676 21.2637 427.676 19.512H425.676ZM414.452 17.744H407.284V19.744H414.452V17.744ZM406.284 18.744V23.096H408.284V18.744H406.284ZM407.284 24.096H414.452V22.096H407.284V24.096ZM414.452 24.096C415.381 24.096 416.239 23.8153 416.86 23.125L415.373 21.787C415.226 21.9501 414.974 22.096 414.452 22.096V24.096ZM416.856 23.1287C417.439 22.4877 417.756 21.7184 417.756 20.856H415.756C415.756 21.1882 415.647 21.4856 415.377 21.7833L416.856 23.1287ZM417.756 20.856C417.756 20.0226 417.479 19.2681 416.888 18.6769L415.473 20.0911C415.65 20.2679 415.756 20.4948 415.756 20.856H417.756ZM416.924 18.715C416.292 18.013 415.403 17.744 414.452 17.744V19.744C415.038 19.744 415.301 19.9017 415.437 20.053L416.924 18.715ZM407.284 36.256H415.668V34.256H407.284V36.256ZM415.668 36.256C416.654 36.256 417.545 35.9458 418.2 35.2247L416.721 33.8793C416.523 34.0969 416.219 34.256 415.668 34.256V36.256ZM418.168 35.2591C418.817 34.61 419.164 33.804 419.164 32.888H417.164C417.164 33.252 417.043 33.5553 416.753 33.8449L418.168 35.2591ZM419.164 32.888C419.164 32.0006 418.858 31.2074 418.232 30.5809L416.817 31.9951C417.044 32.222 417.164 32.4954 417.164 32.888H419.164ZM418.232 30.5809C417.56 29.9094 416.651 29.648 415.668 29.648V31.648C416.308 31.648 416.636 31.8133 416.817 31.9951L418.232 30.5809ZM415.668 29.648H407.284V31.648H415.668V29.648ZM406.284 30.648V35.256H408.284V30.648H406.284ZM464.009 14.904V15.904H465.009V14.904H464.009ZM464.009 11V10H463.009V11H464.009ZM473.865 11H474.865V10H473.865V11ZM473.865 43V44H474.865V43H473.865ZM464.009 43H463.009V44H464.009V43ZM464.009 39.096H465.009V38.096H464.009V39.096ZM463.753 39.096V38.096H463.235L462.936 38.5193L463.753 39.096ZM459.657 42.616L460.122 43.5014L460.122 43.5014L459.657 42.616ZM443.273 39.288L442.526 39.953L442.531 39.9586L443.273 39.288ZM443.209 14.904L442.449 14.254L442.448 14.2549L443.209 14.904ZM459.657 11.384L459.192 12.2694L459.192 12.2694L459.657 11.384ZM463.753 14.904L462.936 15.4807L463.235 15.904H463.753V14.904ZM461.897 32.44L461.169 31.754L461.169 31.7546L461.897 32.44ZM461.897 21.56L462.615 20.8635L461.897 21.56ZM451.273 21.56L451.98 22.2671L451.985 22.2618L451.991 22.2565L451.273 21.56ZM451.273 32.504L450.555 33.2005L450.561 33.2058L450.566 33.2111L451.273 32.504ZM465.009 14.904V11H463.009V14.904H465.009ZM464.009 12H473.865V10H464.009V12ZM472.865 11V43H474.865V11H472.865ZM473.865 42H464.009V44H473.865V42ZM465.009 43V39.096H463.009V43H465.009ZM464.009 38.096H463.753V40.096H464.009V38.096ZM462.936 38.5193C462.011 39.8298 460.771 40.9018 459.192 41.7306L460.122 43.5014C461.956 42.5382 463.447 41.2635 464.57 39.6727L462.936 38.5193ZM459.192 41.7306C457.644 42.5436 455.886 42.96 453.897 42.96V44.96C456.175 44.96 458.257 44.4804 460.122 43.5014L459.192 41.7306ZM453.897 42.96C449.908 42.96 446.638 41.5185 444.015 38.6174L442.531 39.9586C445.54 43.2868 449.353 44.96 453.897 44.96V42.96ZM444.02 38.623C441.44 35.7262 440.113 31.9256 440.113 27.128H438.113C438.113 32.3144 439.559 36.6205 442.526 39.953L444.02 38.623ZM440.113 27.128C440.113 22.3724 441.42 18.5411 443.97 15.5531L442.448 14.2549C439.537 17.6669 438.113 21.9849 438.113 27.128H440.113ZM443.969 15.554C446.548 12.5385 449.831 11.04 453.897 11.04V9.04C449.259 9.04 445.417 10.7842 442.449 14.254L443.969 15.554ZM453.897 11.04C455.886 11.04 457.644 11.4564 459.192 12.2694L460.122 10.4986C458.257 9.51955 456.175 9.04 453.897 9.04V11.04ZM459.192 12.2694C460.771 13.0982 462.011 14.1702 462.936 15.4807L464.57 14.3273C463.447 12.7365 461.956 11.4618 460.122 10.4986L459.192 12.2694ZM463.753 15.904H464.009V13.904H463.753V15.904ZM456.585 35.616C459.008 35.616 461.052 34.7965 462.625 33.1254L461.169 31.7546C460.011 32.9848 458.514 33.616 456.585 33.616V35.616ZM462.625 33.126C464.215 31.4392 465.009 29.3773 465.009 27H463.009C463.009 28.8894 462.395 30.4542 461.169 31.754L462.625 33.126ZM465.009 27C465.009 24.5858 464.218 22.5159 462.615 20.8635L461.179 22.2565C462.392 23.5054 463.009 25.0622 463.009 27H465.009ZM462.615 20.8635C461.007 19.2072 458.972 18.384 456.585 18.384V20.384C458.465 20.384 459.971 21.0115 461.179 22.2565L462.615 20.8635ZM456.585 18.384C454.198 18.384 452.163 19.2072 450.555 20.8635L451.991 22.2565C453.199 21.0115 454.705 20.384 456.585 20.384V18.384ZM450.566 20.8529C448.948 22.4706 448.161 24.5493 448.161 27H450.161C450.161 25.0134 450.782 23.4654 451.98 22.2671L450.566 20.8529ZM448.161 27C448.161 29.451 448.948 31.5442 450.555 33.2005L451.991 31.8075C450.782 30.5625 450.161 28.9864 450.161 27H448.161ZM450.566 33.2111C452.176 34.821 454.207 35.616 456.585 35.616V33.616C454.696 33.616 453.186 33.003 451.98 31.7969L450.566 33.2111ZM515.963 15.8L515.182 16.4247L515.185 16.4289L515.963 15.8ZM519.611 30.264V31.264H520.507L520.605 30.3728L519.611 30.264ZM496.571 30.264V29.264H495.28L495.602 30.5139L496.571 30.264ZM498.747 33.592L498.118 34.3699L498.118 34.3699L498.747 33.592ZM503.035 35.192L502.937 36.1873L502.952 36.1887L502.966 36.1896L503.035 35.192ZM506.619 34.68L506.966 35.6177L506.981 35.6122L506.996 35.6061L506.619 34.68ZM509.115 32.76V31.76H508.563L508.269 32.226L509.115 32.76ZM519.419 32.76L520.382 33.027L520.733 31.76H519.419V32.76ZM513.467 41.016L512.917 40.1803L512.912 40.1839L513.467 41.016ZM490.939 39.096L490.189 39.758L490.198 39.7682L490.939 39.096ZM491.259 14.904L490.542 14.2064L490.542 14.2065L491.259 14.904ZM499.131 19.896L499.663 20.7423L499.671 20.7372L499.131 19.896ZM496.699 22.904L495.76 22.5597L495.267 23.904H496.699V22.904ZM509.819 22.904V23.904H511.213L510.766 22.5834L509.819 22.904ZM503.355 11.04C508.413 11.04 512.317 12.844 515.182 16.4247L516.743 15.1753C513.464 11.076 508.962 9.04 503.355 9.04V11.04ZM515.185 16.4289C518.056 19.9778 519.234 24.517 518.616 30.1552L520.605 30.3728C521.267 24.3204 520.013 19.2169 516.74 15.1711L515.185 16.4289ZM519.611 29.264H496.571V31.264H519.611V29.264ZM495.602 30.5139C496 32.0541 496.85 33.3453 498.118 34.3699L499.375 32.8141C498.425 32.0467 497.824 31.1193 497.539 30.0141L495.602 30.5139ZM498.118 34.3699C499.412 35.4146 501.039 36.0021 502.937 36.1873L503.132 34.1967C501.531 34.0406 500.3 33.5614 499.375 32.8141L498.118 34.3699ZM502.966 36.1896C504.343 36.2846 505.68 36.0941 506.966 35.6177L506.271 33.7423C505.253 34.1192 504.201 34.27 503.103 34.1944L502.966 36.1896ZM506.996 35.6061C508.284 35.0814 509.308 34.3269 509.96 33.294L508.269 32.226C507.897 32.8144 507.257 33.3399 506.241 33.7539L506.996 35.6061ZM509.115 33.76H519.419V31.76H509.115V33.76ZM518.455 32.493C517.536 35.808 515.695 38.3548 512.917 40.1803L514.016 41.8517C517.211 39.7519 519.338 36.7947 520.382 33.027L518.455 32.493ZM512.912 40.1839C510.15 42.0253 506.913 42.96 503.163 42.96V44.96C507.263 44.96 510.895 43.932 514.021 41.8481L512.912 40.1839ZM503.163 42.96C498.181 42.96 494.398 41.4183 491.679 38.4238L490.198 39.7682C493.367 43.259 497.733 44.96 503.163 44.96V42.96ZM491.688 38.4341C488.963 35.3485 487.587 31.5587 487.587 27H485.587C485.587 31.9987 487.111 36.2728 490.189 39.7579L491.688 38.4341ZM487.587 27C487.587 22.371 489.059 18.5973 491.975 15.6015L490.542 14.2065C487.228 17.6107 485.587 21.901 485.587 27H487.587ZM491.975 15.6016C494.927 12.5696 498.693 11.04 503.355 11.04V9.04C498.203 9.04 493.904 10.7531 490.542 14.2064L491.975 15.6016ZM503.291 17.744C501.542 17.744 499.963 18.1718 498.59 19.0548L499.671 20.7372C500.687 20.0842 501.881 19.744 503.291 19.744V17.744ZM498.598 19.0498C497.258 19.8931 496.305 21.0725 495.76 22.5597L497.637 23.2483C498.031 22.1755 498.699 21.3496 499.663 20.7422L498.598 19.0498ZM496.699 23.904H509.819V21.904H496.699V23.904ZM510.766 22.5834C510.234 21.0116 509.326 19.7728 508.02 18.9407C506.727 18.1169 505.127 17.744 503.291 17.744V19.744C504.867 19.744 506.062 20.0644 506.945 20.6273C507.815 21.1819 508.465 22.0231 508.871 23.2246L510.766 22.5834ZM560.195 11H561.195V10H560.195V11ZM560.195 20.472V21.472H561.195V20.472H560.195ZM550.147 20.472V19.472H549.147V20.472H550.147ZM550.147 43V44H551.147V43H550.147ZM540.227 43H539.227V44H540.227V43ZM540.227 20.472H541.227V19.472H540.227V20.472ZM530.115 20.472H529.115V21.472H530.115V20.472ZM530.115 11V10H529.115V11H530.115ZM559.195 11V20.472H561.195V11H559.195ZM560.195 19.472H550.147V21.472H560.195V19.472ZM549.147 20.472V43H551.147V20.472H549.147ZM550.147 42H540.227V44H550.147V42ZM541.227 43V20.472H539.227V43H541.227ZM540.227 19.472H530.115V21.472H540.227V19.472ZM531.115 20.472V11H529.115V20.472H531.115ZM530.115 12H560.195V10H530.115V12ZM126.784 84.736L127.519 85.4139L127.784 85.1267V84.736H126.784ZM117.696 94.592L116.961 93.9141L115.655 95.3306L117.565 95.5834L117.696 94.592ZM125.12 98.24L124.413 98.9471L124.42 98.9545L124.428 98.9617L125.12 98.24ZM124.416 116.224L123.709 115.517L123.709 115.517L124.416 116.224ZM96.32 120H95.32V121H96.32V120ZM96.32 109.76V108.76H95.32V109.76H96.32ZM116.608 108.736L117.293 109.464L117.304 109.454L117.315 109.443L116.608 108.736ZM116.608 103.744L115.901 104.451L115.912 104.462L115.923 104.472L116.608 103.744ZM104.192 102.72H103.192V103.72H104.192V102.72ZM104.192 96.64L103.453 95.9668L103.192 96.253V96.64H104.192ZM112.64 87.36L113.379 88.0332L114.903 86.36H112.64V87.36ZM96.32 87.36H95.32V88.36H96.32V87.36ZM96.32 77.12V76.12H95.32V77.12H96.32ZM126.784 77.12H127.784V76.12H126.784V77.12ZM126.049 84.0581L116.961 93.9141L118.431 95.2699L127.519 85.4139L126.049 84.0581ZM117.565 95.5834C120.251 95.9388 122.522 97.0564 124.413 98.9471L125.827 97.5329C123.622 95.3276 120.944 94.0132 117.827 93.6006L117.565 95.5834ZM124.428 98.9617C126.282 100.74 127.256 103.209 127.256 106.496H129.256C129.256 102.786 128.139 99.7506 125.812 97.5183L124.428 98.9617ZM127.256 106.496C127.256 110.181 126.065 113.161 123.709 115.517L125.123 116.931C127.887 114.167 129.256 110.662 129.256 106.496H127.256ZM123.709 115.517C121.39 117.836 118.514 119 115.008 119V121C119.012 121 122.407 119.647 125.123 116.931L123.709 115.517ZM115.008 119H96.32V121H115.008V119ZM97.32 120V109.76H95.32V120H97.32ZM96.32 110.76H113.664V108.76H96.32V110.76ZM113.664 110.76C115.091 110.76 116.34 110.361 117.293 109.464L115.923 108.008C115.425 108.476 114.711 108.76 113.664 108.76V110.76ZM117.315 109.443C118.219 108.54 118.696 107.436 118.696 106.176H116.696C116.696 106.879 116.448 107.482 115.901 108.029L117.315 109.443ZM118.696 106.176C118.696 104.943 118.206 103.874 117.293 103.016L115.923 104.472C116.461 104.979 116.696 105.531 116.696 106.176H118.696ZM117.315 103.037C116.39 102.112 115.12 101.72 113.664 101.72V103.72C114.768 103.72 115.461 104.011 115.901 104.451L117.315 103.037ZM113.664 101.72H104.192V103.72H113.664V101.72ZM105.192 102.72V96.64H103.192V102.72H105.192ZM104.931 97.3132L113.379 88.0332L111.901 86.6868L103.453 95.9668L104.931 97.3132ZM112.64 86.36H96.32V88.36H112.64V86.36ZM97.32 87.36V77.12H95.32V87.36H97.32ZM96.32 78.12H126.784V76.12H96.32V78.12ZM125.784 77.12V84.736H127.784V77.12H125.784ZM146.162 81.088L145.464 80.3719L145.459 80.3763L146.162 81.088ZM171.57 81.088L170.872 81.8042L170.881 81.813L171.57 81.088ZM171.506 116.032L170.817 115.307L170.813 115.312L171.506 116.032ZM146.098 116.032L145.386 116.735L145.395 116.744L146.098 116.032ZM153.65 108.544L152.943 109.251L152.949 109.257L152.955 109.263L153.65 108.544ZM164.018 108.48L163.345 107.74L163.34 107.745L163.334 107.75L164.018 108.48ZM164.082 88.576L163.375 89.2831L163.386 89.2945L163.398 89.3055L164.082 88.576ZM153.714 88.576L154.409 89.2946L154.415 89.2889L154.421 89.2831L153.714 88.576ZM142.17 103.04V94.08H140.17V103.04H142.17ZM142.17 94.08C142.17 88.928 143.756 84.8686 146.865 81.7997L145.459 80.3763C141.912 83.8781 140.17 88.48 140.17 94.08H142.17ZM146.86 81.8041C150.027 78.7176 154.014 77.16 158.898 77.16V75.16C153.542 75.16 149.039 76.8877 145.464 80.3719L146.86 81.8041ZM158.898 77.16C163.737 77.16 167.704 78.716 170.872 81.8041L172.268 80.3719C168.695 76.8894 164.214 75.16 158.898 75.16V77.16ZM170.881 81.813C174.069 84.841 175.69 88.8528 175.69 93.952H177.69C177.69 88.3845 175.898 83.8203 172.259 80.363L170.881 81.813ZM175.69 93.952V103.04H177.69V93.952H175.69ZM175.69 103.04C175.69 108.18 174.048 112.236 170.817 115.307L172.195 116.757C175.876 113.258 177.69 108.652 177.69 103.04H175.69ZM170.813 115.312C167.601 118.402 163.59 119.96 158.706 119.96V121.96C164.062 121.96 168.584 120.232 172.199 116.752L170.813 115.312ZM158.706 119.96C153.867 119.96 149.924 118.404 146.801 115.32L145.395 116.744C148.928 120.23 153.39 121.96 158.706 121.96V119.96ZM146.81 115.329C143.735 112.215 142.17 108.15 142.17 103.04H140.17C140.17 108.596 141.89 113.193 145.386 116.735L146.81 115.329ZM150.73 94.08V103.04H152.73V94.08H150.73ZM150.73 103.04C150.73 105.607 151.421 107.729 152.943 109.251L154.357 107.837C153.319 106.799 152.73 105.252 152.73 103.04H150.73ZM152.955 109.263C154.454 110.712 156.404 111.4 158.706 111.4V109.4C156.826 109.4 155.406 108.851 154.345 107.825L152.955 109.263ZM158.706 111.4C161.092 111.4 163.121 110.691 164.702 109.21L163.334 107.75C162.184 108.829 160.672 109.4 158.706 109.4V111.4ZM164.691 109.22C166.354 107.708 167.13 105.598 167.13 103.04H165.13C165.13 105.176 164.498 106.692 163.345 107.74L164.691 109.22ZM167.13 103.04V93.952H165.13V103.04H167.13ZM167.13 93.952C167.13 91.4401 166.378 89.3578 164.766 87.8465L163.398 89.3055C164.517 90.3542 165.13 91.8559 165.13 93.952H167.13ZM164.789 87.8689C163.252 86.3319 161.256 85.592 158.898 85.592V87.592C160.807 87.592 162.267 88.1748 163.375 89.2831L164.789 87.8689ZM158.898 85.592C156.54 85.592 154.544 86.3319 153.007 87.8689L154.421 89.2831C155.529 88.1748 156.989 87.592 158.898 87.592V85.592ZM153.019 87.8574C151.448 89.3775 150.73 91.5044 150.73 94.08H152.73C152.73 91.8769 153.335 90.3345 154.409 89.2946L153.019 87.8574ZM245.407 88H246.407V87H245.407V88ZM245.407 120V121H246.407V120H245.407ZM235.487 120H234.487V121H235.487V120ZM235.487 109.696H236.487V108.696H235.487V109.696ZM224.287 120V121H225.287V120H224.287ZM214.303 120H213.303V121H214.303V120ZM218.655 105.728L218.911 106.695L219.655 106.498V105.728H218.655ZM218.655 105.536H219.655V104.97L219.169 104.679L218.655 105.536ZM217.567 91.008L218.259 91.73L218.259 91.7297L217.567 91.008ZM235.487 102.08V103.08H236.487V102.08H235.487ZM235.487 96.832H236.487V95.832H235.487V96.832ZM224.991 97.664L225.698 98.3711L225.712 98.357L225.726 98.3423L224.991 97.664ZM224.991 101.312L225.698 100.605L225.698 100.605L224.991 101.312ZM244.407 88V120H246.407V88H244.407ZM245.407 119H235.487V121H245.407V119ZM236.487 120V109.696H234.487V120H236.487ZM235.487 108.696H227.423V110.696H235.487V108.696ZM227.423 108.696C226.239 108.696 225.164 108.973 224.387 109.703C223.597 110.444 223.287 111.488 223.287 112.64H225.287C225.287 111.83 225.5 111.401 225.755 111.161C226.023 110.91 226.517 110.696 227.423 110.696V108.696ZM223.287 112.64V120H225.287V112.64H223.287ZM224.287 119H214.303V121H224.287V119ZM215.303 120V112.192H213.303V120H215.303ZM215.303 112.192C215.303 110.55 215.64 109.341 216.221 108.478C216.79 107.633 217.656 107.027 218.911 106.695L218.399 104.761C216.753 105.197 215.443 106.052 214.561 107.362C213.691 108.654 213.303 110.293 213.303 112.192H215.303ZM219.655 105.728V105.536H217.655V105.728H219.655ZM219.169 104.679C216.698 103.196 215.495 101.069 215.495 98.176H213.495C213.495 101.769 215.065 104.548 218.141 106.393L219.169 104.679ZM215.495 98.176C215.495 95.6348 216.406 93.5056 218.259 91.73L216.875 90.286C214.632 92.4357 213.495 95.0852 213.495 98.176H215.495ZM218.259 91.7297C220.113 89.9511 222.759 89 226.335 89V87C222.402 87 219.202 88.0542 216.875 90.2863L218.259 91.7297ZM226.335 89H245.407V87H226.335V89ZM227.103 103.08H235.487V101.08H227.103V103.08ZM236.487 102.08V96.832H234.487V102.08H236.487ZM235.487 95.832H227.103V97.832H235.487V95.832ZM227.103 95.832C225.985 95.832 224.993 96.1877 224.256 96.9857L225.726 98.3423C226.013 98.031 226.429 97.832 227.103 97.832V95.832ZM224.284 96.9569C223.584 97.6568 223.223 98.53 223.223 99.52H225.223C225.223 99.0594 225.374 98.6952 225.698 98.3711L224.284 96.9569ZM223.223 99.52C223.223 100.485 223.597 101.332 224.284 102.019L225.698 100.605C225.361 100.268 225.223 99.9201 225.223 99.52H223.223ZM224.284 102.019C225.026 102.761 226.009 103.08 227.103 103.08V101.08C226.405 101.08 225.98 100.887 225.698 100.605L224.284 102.019ZM283.096 103.36L282.706 102.439L282.096 102.698V103.36H283.096ZM283.096 103.552H282.096V104.278L282.787 104.503L283.096 103.552ZM287 106.432L286.164 106.981L286.168 106.987L286.173 106.993L287 106.432ZM285.656 117.248L284.941 116.549L284.941 116.549L285.656 117.248ZM258.776 120H257.776V121H258.776V120ZM258.776 110.848V109.848H257.776V110.848H258.776ZM277.464 110.4L276.712 109.741L276.705 109.749L277.464 110.4ZM264.856 107.84H263.856V108.84H264.856V107.84ZM264.856 99.904V98.904H263.856V99.904H264.856ZM276.76 99.52L277.411 100.279L277.44 100.254L277.468 100.227L276.76 99.52ZM276.76 97.536L276.053 98.2431L276.081 98.2703L276.11 98.2953L276.76 97.536ZM258.776 97.088H257.776V98.088H258.776V97.088ZM258.776 87.936V86.936H257.776V87.936H258.776ZM284.76 90.496L284.071 91.2202L284.079 91.2282L284.76 90.496ZM286.36 100.608L287.21 101.135L287.214 101.129L287.218 101.122L286.36 100.608ZM282.096 103.36V103.552H284.096V103.36H282.096ZM282.787 104.503C284.301 104.995 285.406 105.825 286.164 106.981L287.837 105.883C286.803 104.309 285.306 103.219 283.406 102.601L282.787 104.503ZM286.173 106.993C286.952 108.143 287.344 109.439 287.344 110.912H289.344C289.344 109.057 288.841 107.366 287.828 105.871L286.173 106.993ZM287.344 110.912C287.344 113.02 286.565 114.886 284.941 116.549L286.372 117.947C288.332 115.94 289.344 113.583 289.344 110.912H287.344ZM284.941 116.549C283.379 118.149 281.187 119 278.232 119V121C281.593 121 284.35 120.017 286.372 117.947L284.941 116.549ZM278.232 119H258.776V121H278.232V119ZM259.776 120V110.848H257.776V120H259.776ZM258.776 111.848H276.312V109.848H258.776V111.848ZM276.312 111.848C277.022 111.848 277.724 111.634 278.224 111.051L276.705 109.749C276.693 109.764 276.627 109.848 276.312 109.848V111.848ZM278.217 111.059C278.664 110.547 278.912 109.933 278.912 109.248H276.912C276.912 109.416 276.862 109.57 276.712 109.741L278.217 111.059ZM278.912 109.248C278.912 108.613 278.744 107.956 278.236 107.469C277.736 106.991 277.074 106.84 276.44 106.84V108.84C276.609 108.84 276.717 108.861 276.781 108.881C276.811 108.891 276.83 108.9 276.84 108.905C276.849 108.911 276.853 108.914 276.853 108.915C276.854 108.915 276.855 108.917 276.858 108.921C276.862 108.926 276.868 108.939 276.876 108.961C276.893 109.008 276.912 109.098 276.912 109.248H278.912ZM276.44 106.84H264.856V108.84H276.44V106.84ZM265.856 107.84V99.904H263.856V107.84H265.856ZM264.856 100.904H275.608V98.904H264.856V100.904ZM275.608 100.904C276.268 100.904 276.898 100.719 277.411 100.279L276.11 98.7607C276.026 98.8326 275.887 98.904 275.608 98.904V100.904ZM277.468 100.227C277.933 99.7615 278.208 99.173 278.208 98.496H276.208C276.208 98.587 276.185 98.6812 276.053 98.8129L277.468 100.227ZM278.208 98.496C278.208 97.812 277.925 97.2174 277.411 96.7767L276.11 98.2953C276.193 98.3666 276.208 98.412 276.208 98.496H278.208ZM277.468 96.8289C276.943 96.3041 276.262 96.088 275.544 96.088V98.088C275.851 98.088 275.981 98.1705 276.053 98.2431L277.468 96.8289ZM275.544 96.088H258.776V98.088H275.544V96.088ZM259.776 97.088V87.936H257.776V97.088H259.776ZM258.776 88.936H277.208V86.936H258.776V88.936ZM277.208 88.936C280.277 88.936 282.517 89.7401 284.071 91.2201L285.45 89.7719C283.42 87.8385 280.626 86.936 277.208 86.936V88.936ZM284.079 91.2282C285.731 92.7641 286.512 94.5118 286.512 96.512H288.512C288.512 93.9042 287.46 91.6412 285.442 89.7638L284.079 91.2282ZM286.512 96.512C286.512 97.776 286.181 98.9642 285.503 100.094L287.218 101.122C288.076 99.6918 288.512 98.1493 288.512 96.512H286.512ZM285.511 100.081C284.857 101.134 283.934 101.918 282.706 102.439L283.487 104.281C285.075 103.607 286.328 102.557 287.21 101.135L285.511 100.081ZM311.072 97.024H310.072V98.024H311.072V97.024ZM326.752 100.416L326.011 101.087L326.018 101.095L326.752 100.416ZM326.752 116.608L326.011 115.936L326.011 115.937L326.752 116.608ZM301.152 120H300.152V121H301.152V120ZM301.152 88V87H300.152V88H301.152ZM311.072 88H312.072V87H311.072V88ZM332.064 120H331.064V121H332.064V120ZM332.064 88V87H331.064V88H332.064ZM341.984 88H342.984V87H341.984V88ZM341.984 120V121H342.984V120H341.984ZM311.072 111.168H310.072V112.168H311.072V111.168ZM319.392 110.336L320.127 111.014L320.139 111.001L320.151 110.987L319.392 110.336ZM319.392 106.24L318.657 106.918L318.657 106.918L319.392 106.24ZM311.072 105.408V104.408H310.072V105.408H311.072ZM311.072 98.024H318.048V96.024H311.072V98.024ZM318.048 98.024C321.591 98.024 324.195 99.0822 326.011 101.087L327.493 99.7447C325.213 97.2271 322.015 96.024 318.048 96.024V98.024ZM326.018 101.095C327.935 103.169 328.888 105.614 328.888 108.48H330.888C330.888 105.117 329.75 102.186 327.486 99.7371L326.018 101.095ZM328.888 108.48C328.888 111.347 327.935 113.816 326.011 115.936L327.493 117.28C329.75 114.792 330.888 111.843 330.888 108.48H328.888ZM326.011 115.937C324.195 117.942 321.591 119 318.048 119V121C322.015 121 325.213 119.797 327.493 117.279L326.011 115.937ZM318.048 119H301.152V121H318.048V119ZM302.152 120V88H300.152V120H302.152ZM301.152 89H311.072V87H301.152V89ZM310.072 88V97.024H312.072V88H310.072ZM333.064 120V88H331.064V120H333.064ZM332.064 89H341.984V87H332.064V89ZM340.984 88V120H342.984V88H340.984ZM341.984 119H332.064V121H341.984V119ZM311.072 112.168H317.28V110.168H311.072V112.168ZM317.28 112.168C318.398 112.168 319.39 111.812 320.127 111.014L318.657 109.658C318.37 109.969 317.954 110.168 317.28 110.168V112.168ZM320.151 110.987C320.814 110.213 321.16 109.301 321.16 108.288H319.16C319.16 108.811 318.994 109.264 318.633 109.685L320.151 110.987ZM321.16 108.288C321.16 107.246 320.823 106.316 320.127 105.562L318.657 106.918C318.985 107.274 319.16 107.708 319.16 108.288H321.16ZM320.127 105.562C319.39 104.764 318.398 104.408 317.28 104.408V106.408C317.954 106.408 318.37 106.607 318.657 106.918L320.127 105.562ZM317.28 104.408H311.072V106.408H317.28V104.408ZM310.072 105.408V111.168H312.072V105.408H310.072ZM388.56 88L389.429 88.4956L390.282 87H388.56V88ZM381.584 100.224L380.715 99.7283L379.986 101.006L381.443 101.214L381.584 100.224ZM386.064 102.528L385.333 103.21L385.339 103.217L385.345 103.223L386.064 102.528ZM387.856 120V121H388.856V120H387.856ZM377.936 120H376.936V121H377.936V120ZM366.672 108.48V107.48H365.672V108.48H366.672ZM366.672 120V121H367.672V120H366.672ZM356.752 120H355.752V121H356.752V120ZM356.752 88V87H355.752V88H356.752ZM366.672 88H367.672V87H366.672V88ZM366.672 100.16H365.672V101.16H366.672V100.16ZM371.28 100.16V101.16H371.878L372.161 100.633L371.28 100.16ZM377.808 88V87H377.21L376.927 87.527L377.808 88ZM387.691 87.5044L380.715 99.7283L382.453 100.72L389.429 88.4956L387.691 87.5044ZM381.443 101.214C383.017 101.439 384.3 102.103 385.333 103.21L386.795 101.846C385.439 100.393 383.735 99.5211 381.725 99.234L381.443 101.214ZM385.345 103.223C386.33 104.243 386.856 105.6 386.856 107.392H388.856C388.856 105.174 388.188 103.288 386.783 101.833L385.345 103.223ZM386.856 107.392V120H388.856V107.392H386.856ZM387.856 119H377.936V121H387.856V119ZM378.936 120V110.528H376.936V120H378.936ZM378.936 110.528C378.936 109.667 378.696 108.844 378.051 108.254C377.422 107.679 376.576 107.48 375.696 107.48V109.48C376.31 109.48 376.583 109.622 376.701 109.73C376.802 109.822 376.936 110.024 376.936 110.528H378.936ZM375.696 107.48H366.672V109.48H375.696V107.48ZM365.672 108.48V120H367.672V108.48H365.672ZM366.672 119H356.752V121H366.672V119ZM357.752 120V88H355.752V120H357.752ZM356.752 89H366.672V87H356.752V89ZM365.672 88V100.16H367.672V88H365.672ZM366.672 101.16H371.28V99.16H366.672V101.16ZM372.161 100.633L378.689 88.473L376.927 87.527L370.399 99.687L372.161 100.633ZM377.808 89H388.56V87H377.808V89ZM404.673 116.16L405.384 115.458L405.384 115.458L404.673 116.16ZM404.673 91.904L405.384 92.6064L405.389 92.6016L404.673 91.904ZM429.633 91.904L428.916 92.6016L428.921 92.6063L429.633 91.904ZM411.905 109.312L411.187 110.008L411.192 110.014L411.197 110.019L411.905 109.312ZM422.401 109.312L423.108 110.019L423.113 110.014L423.118 110.008L422.401 109.312ZM422.401 98.752L421.672 99.4367L421.677 99.4425L421.683 99.4481L422.401 98.752ZM411.841 98.752L411.123 98.0559L411.117 98.0615L411.112 98.0673L411.841 98.752ZM428.921 115.458C425.98 118.439 422.091 119.96 417.153 119.96V121.96C422.54 121.96 426.971 120.281 430.344 116.862L428.921 115.458ZM417.153 119.96C412.214 119.96 408.325 118.439 405.384 115.458L403.961 116.862C407.334 120.281 411.765 121.96 417.153 121.96V119.96ZM405.384 115.458C402.429 112.463 400.937 108.67 400.937 104H398.937C398.937 109.143 400.601 113.457 403.961 116.862L405.384 115.458ZM400.937 104C400.937 99.3751 402.428 95.603 405.384 92.6063L403.961 91.2017C400.603 94.605 398.937 98.8968 398.937 104H400.937ZM405.389 92.6016C408.331 89.5801 412.218 88.04 417.153 88.04V86.04C411.761 86.04 407.329 87.7426 403.956 91.2064L405.389 92.6016ZM417.153 88.04C422.087 88.04 425.974 89.5801 428.916 92.6016L430.349 91.2064C426.976 87.7426 422.544 86.04 417.153 86.04V88.04ZM428.921 92.6063C431.877 95.603 433.369 99.3751 433.369 104H435.369C435.369 98.8968 433.702 94.605 430.344 91.2017L428.921 92.6063ZM433.369 104C433.369 108.67 431.876 112.463 428.921 115.458L430.344 116.862C433.704 113.457 435.369 109.143 435.369 104H433.369ZM411.197 110.019C412.771 111.593 414.784 112.36 417.153 112.36V110.36C415.254 110.36 413.769 109.762 412.612 108.605L411.197 110.019ZM417.153 112.36C419.521 112.36 421.534 111.593 423.108 110.019L421.693 108.605C420.536 109.762 419.051 110.36 417.153 110.36V112.36ZM423.118 110.008C424.677 108.4 425.449 106.396 425.449 104.064H423.449C423.449 105.914 422.854 107.408 421.683 108.616L423.118 110.008ZM425.449 104.064C425.449 101.696 424.681 99.6676 423.118 98.0559L421.683 99.4481C422.85 100.652 423.449 102.166 423.449 104.064H425.449ZM423.129 98.0673C421.593 96.4317 419.566 95.64 417.153 95.64V97.64C419.091 97.64 420.563 98.2563 421.672 99.4367L423.129 98.0673ZM417.153 95.64C414.739 95.64 412.698 96.4314 411.123 98.0559L412.558 99.4481C413.714 98.2566 415.214 97.64 417.153 97.64V95.64ZM411.112 98.0673C409.596 99.6808 408.857 101.705 408.857 104.064H410.857C410.857 102.156 411.44 100.639 412.569 99.4367L411.112 98.0673ZM408.857 104.064C408.857 106.396 409.628 108.4 411.187 110.008L412.622 108.616C411.451 107.408 410.857 105.914 410.857 104.064H408.857ZM472.476 103.296L472.056 102.388L471.476 102.657V103.296H472.476ZM472.476 103.488H471.476V104.252L472.213 104.453L472.476 103.488ZM476.764 106.304L475.952 106.888L475.956 106.894L475.961 106.9L476.764 106.304ZM475.676 117.312L474.944 116.631L474.943 116.632L475.676 117.312ZM447.452 120H446.452V121H447.452V120ZM447.452 88V87H446.452V88H447.452ZM474.204 90.496L473.497 91.2032L473.506 91.212L474.204 90.496ZM457.372 95.744V94.744H456.372V95.744H457.372ZM457.372 100.096H456.372V101.096H457.372V100.096ZM466.204 99.456L465.464 98.7833L465.461 98.787L466.204 99.456ZM466.268 96.384L465.525 97.053L465.542 97.0725L465.561 97.0911L466.268 96.384ZM457.372 112.256H456.372V113.256H457.372V112.256ZM467.548 111.552L466.841 110.845L466.824 110.862L466.808 110.879L467.548 111.552ZM467.612 108.288L466.905 108.995L466.905 108.995L467.612 108.288ZM457.372 107.648V106.648H456.372V107.648H457.372ZM471.476 103.296V103.488H473.476V103.296H471.476ZM472.213 104.453C473.906 104.914 475.125 105.737 475.952 106.888L477.576 105.72C476.44 104.14 474.801 103.086 472.739 102.523L472.213 104.453ZM475.961 106.9C476.806 108.039 477.236 109.363 477.236 110.912H479.236C479.236 108.962 478.685 107.214 477.567 105.708L475.961 106.9ZM477.236 110.912C477.236 113.083 476.484 114.975 474.944 116.631L476.408 117.993C478.281 115.98 479.236 113.605 479.236 110.912H477.236ZM474.943 116.632C473.517 118.167 471.425 119 468.508 119V121C471.82 121 474.507 120.041 476.409 117.992L474.943 116.632ZM468.508 119H447.452V121H468.508V119ZM448.452 120V88H446.452V120H448.452ZM447.452 89H466.908V87H447.452V89ZM466.908 89C469.941 89 472.08 89.7861 473.497 91.2031L474.911 89.7889C473 87.8779 470.275 87 466.908 87V89ZM473.506 91.212C475.023 92.6911 475.764 94.4397 475.764 96.512H477.764C477.764 93.891 476.798 91.6289 474.902 89.78L473.506 91.212ZM475.764 96.512C475.764 97.9603 475.442 99.1319 474.847 100.074C474.252 101.014 473.342 101.793 472.056 102.388L472.896 104.204C474.468 103.476 475.703 102.463 476.537 101.142C477.371 99.8228 477.764 98.2637 477.764 96.512H475.764ZM464.54 94.744H457.372V96.744H464.54V94.744ZM456.372 95.744V100.096H458.372V95.744H456.372ZM457.372 101.096H464.54V99.096H457.372V101.096ZM464.54 101.096C465.469 101.096 466.326 100.815 466.947 100.125L465.461 98.787C465.314 98.9501 465.062 99.096 464.54 99.096V101.096ZM466.944 100.129C467.527 99.4877 467.844 98.7184 467.844 97.856H465.844C465.844 98.1882 465.735 98.4856 465.464 98.7833L466.944 100.129ZM467.844 97.856C467.844 97.0226 467.566 96.2681 466.975 95.6769L465.561 97.0911C465.738 97.2679 465.844 97.4948 465.844 97.856H467.844ZM467.011 95.715C466.379 95.013 465.491 94.744 464.54 94.744V96.744C465.125 96.744 465.389 96.9017 465.525 97.053L467.011 95.715ZM457.372 113.256H465.756V111.256H457.372V113.256ZM465.756 113.256C466.741 113.256 467.632 112.946 468.288 112.225L466.808 110.879C466.61 111.097 466.307 111.256 465.756 111.256V113.256ZM468.255 112.259C468.904 111.61 469.252 110.804 469.252 109.888H467.252C467.252 110.252 467.13 110.555 466.841 110.845L468.255 112.259ZM469.252 109.888C469.252 109.001 468.946 108.207 468.319 107.581L466.905 108.995C467.132 109.222 467.252 109.495 467.252 109.888H469.252ZM468.319 107.581C467.648 106.909 466.738 106.648 465.756 106.648V108.648C466.395 108.648 466.723 108.813 466.905 108.995L468.319 107.581ZM465.756 106.648H457.372V108.648H465.756V106.648ZM456.372 107.648V112.256H458.372V107.648H456.372Z" fill="#00FFF0"/>
</svg>
