<svg width="1280" height="917" viewBox="0 0 1280 917" fill="none" xmlns="http://www.w3.org/2000/svg">
<path d="M518 554.918L614 621.918C621.333 627.918 637 650.918 641 694.918L682 846.918" stroke="#FF8EF4" stroke-width="3"/>
<path d="M405.829 731.507L484.171 884.329" stroke="#FF8EF4" stroke-width="3"/>
<path d="M262 337.918C267.333 344.085 280.9 355.418 292.5 351.418C304.1 347.418 314.167 335.833 316 334" stroke="#FF8EF4" stroke-width="3"/>
<path d="M534 437.918C535.667 442.251 538 451.918 534 455.918C530 459.918 502.333 461.585 489 461.918L469 449.418M534 437.918L539.5 430.918L524 437.918L512.5 434.418L472 441.418L502 446.418L512.5 441.418H524L534 437.918ZM271 459.418C296.333 491.251 348.9 568.418 356.5 622.418L394.998 707.418M407 733.918L394.998 707.418M394.998 707.418C396.499 677.918 401 616.018 407 604.418C413 592.818 419.833 561.585 422.5 547.418" stroke="#FF8EF4" stroke-width="3"/>
<path d="M191 442.918L172 466.918L136 475.918L60 540.918" stroke="#FF8EF4" stroke-width="3"/>
<path d="M482 158C479.833 122.667 463.2 49.9001 414 41.5001C364.8 33.1001 284.167 67.3334 250 85.5001" stroke="#A6FFFA" stroke-width="3"/>
<path d="M529.5 141.001C512.667 101.501 468.949 33.7673 444 21.0006C406.227 1.6718 310.614 22.6194 277.5 54.0006M551.5 138C535.221 96.4685 483.349 26.7873 460.5 17.5005C437.126 8.00025 366.823 5.60163 332 13.0005M564 135.001C552.987 81.7453 534.578 54.6026 471 13.0005M444 159C432.333 137.333 400 95.8 364 103C319 112 229 148 212 210C198.4 259.6 194.333 278.667 194 282" stroke="#A6FFFA" stroke-width="3"/>
<path d="M500.5 397.918L455.5 421.918L437.5 442.418L343 313.418L391 231.918C395.346 225.874 433 226.918 427.5 222.918C422 218.918 421 180.918 427.5 167.918C434 154.918 468.758 168.173 492 154.918C515.242 141.663 584.439 131.479 577 139.918" stroke="#FF8EF4" stroke-width="3"/>
<path d="M507 359.418C502.833 365.085 494.8 377.118 496 379.918C497.5 383.418 498 393.918 502.5 393.918C507 393.918 524 386.418 530 388.418C534.8 390.018 540.333 392.751 542.5 393.918C542.833 395.918 542.5 399.718 538.5 398.918" stroke="#FF8EF4" stroke-width="3"/>
<path d="M549 303L557.5 306L570.5 303C570 298.833 570.5 291.5 573.5 289" stroke="#FF8EF4" stroke-width="3"/>
<path d="M591 262.418C594.6 272.818 589.5 283.751 586.5 287.918C579.477 288.651 567.683 289.965 559 291.138M591 262.418C587.242 243.316 591.644 189.871 591 173.918C590.448 160.247 580.167 145.751 577 139.918C586 121.918 589.6 77.3177 532 42.9177C474.4 8.51768 436.667 2.58435 425 3.91768C399.333 -0.0823324 339.2 -0.482367 304 29.9176C260 67.9176 253 77.9177 225 119.918C214 151.918 191.8 222.918 191 250.918C193.333 268.251 196.6 316.918 191 372.918C189.333 378.251 183.8 391.518 175 401.918L219 493.918C238.333 487.918 276.6 468.518 275 438.918C273 401.918 247 363.918 261 337.918C257.333 335.251 249.2 327.918 246 319.918C242 309.918 229 259.918 234 250.918C239 241.918 242 224.918 254 228.918C266 232.918 287 231.918 304 269.918L319 349.918L313 384.918L275 410.918L313 479.918C323 496.251 350 528.918 378 528.918L466 563.918L521 553.918C529.333 538.584 544.6 502.318 539 479.918L559 427.918L546 401.918C552.667 399.584 566.1 392.918 566.5 384.918C567 374.918 563.5 374.418 559 360.918C555.4 350.118 550.5 326.751 548.5 316.418C547 309.084 544.9 294.118 548.5 292.918C549.836 292.472 553.876 291.83 559 291.138M591 262.418C581.337 275.296 573.324 280.994 559 291.138M442.5 292.918L452 287.918L474.5 280.918M535 292.918L543 280.918L488 262.418L433 275.918L485 280.918L535 292.918ZM449 300.418C458 295.344 480.2 285.342 485 287.918C489.8 290.494 500 301.491 504 305.918C499.667 308.418 488.2 311.718 481 310.918C473.8 310.118 455.667 303.751 449 300.418Z" stroke="#FF8EF4" stroke-width="3"/>
<path d="M448 300.918L433.5 309.418" stroke="#FF8EF4" stroke-width="3"/>
<path d="M438 295.918H422" stroke="#FF8EF4" stroke-width="3"/>
<path d="M561 309.418H569.431M569.431 309.418C571.294 306.569 570.461 305.919 570.5 302.5M569.431 309.418C570.888 329.162 559 363 559 363" stroke="#FF8EF4" stroke-width="3"/>
<path d="M505.5 300.918L493 283.918" stroke="#FF8EF4" stroke-width="3"/>
<path d="M289 378C289 383.567 284.703 388 279.5 388C274.297 388 270 383.567 270 378C270 372.433 274.297 368 279.5 368C284.703 368 289 372.433 289 378Z" stroke="white" stroke-width="2"/>
<path d="M286 378.5C286 382.857 282.886 386 279.5 386C276.114 386 273 382.857 273 378.5C273 374.143 276.114 371 279.5 371C282.886 371 286 374.143 286 378.5Z" stroke="#0055FB" stroke-width="4"/>
<path d="M566.5 298C566.5 301.263 564.277 303.5 562 303.5C559.723 303.5 557.5 301.263 557.5 298C557.5 294.737 559.723 292.5 562 292.5C564.277 292.5 566.5 294.737 566.5 298Z" stroke="#00FFF0" stroke-width="3"/>
<path d="M681 846L1302 847" stroke="#FF8EF4" stroke-width="3"/>
<path d="M62 538.918L0 598.918" stroke="#FF8EF4" stroke-width="3"/>
<path d="M481 878.918L501 914.918" stroke="#FF8EF4" stroke-width="3"/>
<path d="M500 913L1280 914.977" stroke="#FF8EF4" stroke-width="4"/>
<path d="M489 299.5C489 303.857 485.886 307 482.5 307C479.114 307 476 303.857 476 299.5C476 295.143 479.114 292 482.5 292C485.886 292 489 295.143 489 299.5Z" stroke="#00FFF0" stroke-width="4"/>
</svg>
