<svg width="1073" height="828" viewBox="0 0 1073 828" fill="none" xmlns="http://www.w3.org/2000/svg">
<path d="M945.555 178.424L925.91 186.879C909.241 181.227 879.854 171.826 859.884 166.962M945.555 178.424C957.981 173.076 971.693 197.758 976.995 210.768C1005.94 279.201 1020.27 376.696 1023.49 403.679C1026.06 425.265 1020.08 444.61 1016.76 451.585M945.555 178.424C942.405 184.639 937.646 206.323 943.808 243.345C951.51 289.622 971.51 381.984 991.564 428.567C993.75 431.831 1008.3 458.101 1016.76 451.585M85.9979 317.775C336.734 265.321 589.424 213.8 840.681 163.902C843.847 163.507 850.916 164.777 859.884 166.962M85.9979 317.775C85.9979 317.775 76.6817 338.97 72.4798 347.477L64.7281 354.545L57.8057 357.813C55.0018 406.708 63.1632 529.802 118.24 631.013L128.909 633.341C139.103 641.007 167.145 659.204 167.145 659.204M85.9979 317.775C85.9979 317.775 89.0629 461.949 115.729 540.077C142.395 618.206 167.145 659.204 167.145 659.204M167.145 659.204C167.145 659.204 930.414 502.028 932.785 502.545M932.785 502.545C935.156 503.063 976.944 457.63 985.427 456.694C992.214 455.945 1009.14 452.976 1016.76 451.585M932.785 502.545C924.487 500.735 923.463 492.149 917.116 485.19C910.77 478.231 860.529 344.23 850.286 258.376C842.091 189.694 853.27 168.815 859.884 166.962M964.389 268.541L958.555 282.001L972.545 341.197L986.492 364.548L1003.66 390.194C1006.82 390.884 1011.75 386.145 1006.16 361.672C999.176 331.081 1002.31 318.624 998.02 311.716C994.589 306.189 974.17 280.63 964.389 268.541Z" stroke="#FF8EF4" stroke-width="3"/>
<path d="M534 557L913.5 479C921.38 492.393 925.669 499.074 932 502.5L546 581.5L493 547L452.5 330L508.5 400L478.5 405.5L501.5 536L534 557Z" fill="#FF8EF4"/>
<path d="M393 284.5L87.5 345L87.5001 319L382.5 257L436 307L463.5 476.5L418.5 410.5L436 406.5L415.5 307L393 284.5Z" fill="#FF8EF4"/>
</svg>
