<svg width="1280" height="844" viewBox="0 0 1280 844" fill="none" xmlns="http://www.w3.org/2000/svg">
<path d="M464.983 211.087H455.971V599H841.454V211.087H565.609M464.983 211.087V200.576L468.487 193.568V176.55H474.745M464.983 211.087H485.508M485.508 211.087V200.576L481.003 191.566V176.55H474.745M485.508 211.087H502.029M474.745 176.55V139.511L442.454 107.476V1.36328M502.029 211.087V200.576L508.037 193.568V176.55H513.794M502.029 211.087H526.56M526.56 211.087V200.576L519.551 191.566V176.55H513.794M526.56 211.087H541.579M513.794 176.55V139.511L481.003 107.476V1.36328M541.579 211.087V200.576L546.585 193.568V176.55H552.592M541.579 211.087H565.609M565.609 211.087V200.576L558.6 191.566V176.55H552.592M552.592 176.55V139.511L519.551 107.476V1.36328" stroke="#FF8EF4" stroke-width="3"/>
<path d="M580.03 210V201L585.53 194.5V176H591.53M605.03 210V201L597.53 194.5V176H591.53M591.53 176V101.5L559.53 70.5V0.5" stroke="#FF8EF4" stroke-width="3"/>
<path d="M620.03 211V202L626.03 194V176.5H631.03M643.53 211V202L636.03 194V176.5H631.03M631.03 176.5V100L599.03 68.5V2" stroke="#FF8EF4" stroke-width="3"/>
<path d="M454.777 218.984L445.777 218.893L437.712 225.319L420.213 225.143L420.158 230.565M454.52 244.469L445.52 244.378L437.602 236.164L420.103 235.987L420.158 230.565M420.158 230.565L343.662 229.794L312.513 194.772L0.954658 194.771" stroke="#FF8EF4" stroke-width="3"/>
<path d="M454.776 257.383L445.777 257.293L437.711 263.719L420.212 263.542L420.158 268.965M454.519 282.869L445.52 282.778L437.602 274.564L420.103 274.387L420.158 268.965M420.158 268.965L343.662 268.193L312.513 233.172L-0.545471 233.171" stroke="#FF8EF4" stroke-width="3"/>
<path d="M454.776 300.382L445.777 300.291L437.712 306.718L420.212 306.541L420.158 311.963M454.519 325.867L445.52 325.777L437.602 317.562L420.103 317.386L420.158 311.963M420.158 311.963L343.662 311.192L312.513 276.171L0.954651 276.171" stroke="#FF8EF4" stroke-width="3"/>
<path d="M454.777 336.382L445.777 336.291L437.712 342.718L420.213 342.541L420.158 347.964M454.52 361.868L445.52 361.777L437.602 353.562L420.103 353.386L420.158 347.964M420.158 347.964L343.662 347.192L312.513 312.171L-2.5452 312.17" stroke="#FF8EF4" stroke-width="3"/>
<path d="M454.777 374.382L445.777 374.291L437.712 380.718L420.213 380.541L420.158 385.964M454.52 399.868L445.52 399.777L437.602 391.562L420.103 391.386L420.158 385.964M420.158 385.964L343.662 385.192L312.513 350.171L-2.54523 350.17" stroke="#FF8EF4" stroke-width="3"/>
<path d="M454.673 432.057L445.674 431.966L437.74 425.386L420.241 425.209L420.295 419.793M454.93 406.601L445.931 406.51L437.849 414.554L420.35 414.377L420.295 419.793M420.295 419.793L343.799 419.022L311.951 453.367L-0.54541 453.373" stroke="#FF8EF4" stroke-width="3"/>
<path d="M454.749 472.057L445.749 471.966L437.815 465.386L420.316 465.21L420.371 459.794M455.005 446.602L446.006 446.511L437.924 454.554L420.425 454.378L420.371 459.794M420.371 459.794L343.874 459.022L312.027 493.368L-0.54541 493.373" stroke="#FF8EF4" stroke-width="3"/>
<path d="M454.749 511.058L445.749 510.967L437.815 504.388L420.316 504.211L420.371 498.795M455.005 485.603L446.006 485.512L437.924 493.555L420.425 493.379L420.371 498.795M420.371 498.795L343.874 498.024L312.026 532.369L-2.54541 532.373" stroke="#FF8EF4" stroke-width="3"/>
<path d="M454.749 590.056L445.749 589.965L437.815 583.386L420.316 583.209L420.371 577.793M455.005 564.601L446.006 564.51L437.924 572.553L420.425 572.377L420.371 577.793M420.371 577.793L343.874 577.022L312.026 611.367L-0.54541 611.373" stroke="#FF8EF4" stroke-width="3"/>
<path d="M454.749 551.054L445.749 550.963L437.815 544.383L420.316 544.207L420.37 538.79M455.005 525.598L446.006 525.507L437.924 533.551L420.425 533.374L420.37 538.79M420.37 538.79L343.874 538.019L312.026 572.364L-0.54541 572.373" stroke="#FF8EF4" stroke-width="3"/>
<path d="M464.763 600.302L464.838 609.302L471.413 617.247L471.559 634.747L476.982 634.701M490.249 600.089L490.324 609.088L482.258 617.156L482.404 634.656L476.982 634.701M476.982 634.701L477.624 711.199L443.184 742.989L443.184 838" stroke="#FF8EF4" stroke-width="3"/>
<path d="M499.701 599.614L499.777 608.614L505.884 616.563L506.031 634.062L511.064 634.02M523.358 599.416L523.434 608.416L515.951 616.479L516.098 633.978L511.064 634.02M511.064 634.02L511.706 710.518L467.954 751L467.954 838.5" stroke="#FF8EF4" stroke-width="3"/>
<path d="M542.148 598.799L542.224 607.798L548.798 615.743L548.945 633.243L554.367 633.197M567.634 598.585L567.71 607.584L559.643 615.652L559.79 633.152L554.367 633.197M554.367 633.197L555.009 709.695L520.57 741.485L520.569 837.5" stroke="#FF8EF4" stroke-width="3"/>
<path d="M581.142 598.133L581.218 607.132L587.792 615.077L587.939 632.577L593.361 632.531M606.628 597.919L606.703 606.918L598.637 614.986L598.784 632.486L593.361 632.531M593.361 632.531L594.003 709.029L559.564 740.819L559.563 838.5" stroke="#FF8EF4" stroke-width="3"/>
<path d="M618.866 598.391L618.96 609.582L624.343 619.485L624.525 641.246L628.941 641.209M639.621 598.217L639.715 609.408L633.174 619.411L633.357 641.172L628.941 641.209M628.941 641.209L629.74 736.333L601.807 775.739L601.807 844" stroke="#FF8EF4" stroke-width="3"/>
<path d="M678.809 600.467L678.884 609.466L672.452 617.521L672.599 635.02L667.183 635.066M653.353 600.68L653.428 609.68L661.62 617.612L661.767 635.111L667.183 635.066M667.183 635.066L667.825 711.563L702.752 742.771L702.752 838.5" stroke="#FF8EF4" stroke-width="3"/>
<path d="M716.8 599.654L716.876 608.653L710.443 616.708L710.59 634.207L705.174 634.252M691.344 599.867L691.42 608.867L699.611 616.798L699.758 634.298L705.174 634.252M705.174 634.252L705.816 710.75L740.744 741.958L740.744 839" stroke="#FF8EF4" stroke-width="3"/>
<path d="M755.794 598.933L755.869 607.933L749.437 615.987L749.584 633.487L744.168 633.532M730.338 599.147L730.414 608.147L738.605 616.078L738.752 633.577L744.168 633.532M744.168 633.532L744.81 710.029L779.738 741.237L779.738 837.5" stroke="#FF8EF4" stroke-width="3"/>
<path d="M834.78 597.474L834.855 606.473L828.423 614.528L828.57 632.027L823.154 632.073M809.324 597.687L809.4 606.687L817.591 614.619L817.738 632.118L823.154 632.073M823.154 632.073L823.796 708.57L858.724 739.778L858.724 838" stroke="#FF8EF4" stroke-width="3"/>
<path d="M802.208 598.178L802.283 607.178L796.286 615.228L796.432 632.728L791.379 632.77M778.454 598.377L778.53 607.377L786.178 615.313L786.325 632.813L791.379 632.77M791.379 632.77L792.021 709.268L824.63 740.495L824.63 837.496" stroke="#FF8EF4" stroke-width="3"/>
<path d="M844.269 590.627L853.269 590.569L861.226 584.01L878.726 583.896L878.691 578.474M844.104 565.141L853.104 565.082L861.156 573.164L878.656 573.051L878.691 578.474M878.691 578.474L955.189 577.979L986.913 612.479L1279.95 612.476" stroke="#FF8EF4" stroke-width="3"/>
<path d="M843.634 552.233L852.633 552.175L860.591 545.616L878.091 545.503L878.056 540.08M843.469 526.747L852.468 526.689L860.521 534.771L878.02 534.658L878.056 540.08M878.056 540.08L954.554 539.585L986.278 574.086L1281.95 574.082" stroke="#FF8EF4" stroke-width="3"/>
<path d="M842.921 509.24L851.921 509.182L859.879 502.623L877.378 502.51L877.343 497.087M842.756 483.754L851.756 483.696L859.808 491.778L877.308 491.665L877.343 497.087M877.343 497.087L953.841 496.592L985.566 531.093L1280.95 531.088" stroke="#FF8EF4" stroke-width="3"/>
<path d="M842.324 473.244L851.324 473.186L859.282 466.627L876.781 466.514L876.746 461.091M842.159 447.758L851.159 447.7L859.212 455.782L876.711 455.669L876.746 461.091M876.746 461.091L953.245 460.596L984.969 495.096L1280.95 495.094" stroke="#FF8EF4" stroke-width="3"/>
<path d="M841.695 435.247L850.695 435.189L858.652 428.63L876.152 428.516L876.117 423.094M841.53 409.761L850.53 409.702L858.582 417.785L876.082 417.671L876.117 423.094M876.117 423.094L952.615 422.599L984.339 457.099L1281.95 457.097" stroke="#FF8EF4" stroke-width="3"/>
<path d="M844.843 377.579L853.843 377.52L861.885 383.968L879.385 383.855L879.42 389.271M845.008 403.035L854.008 402.977L861.955 394.8L879.455 394.687L879.42 389.271M879.42 389.271L955.918 388.776L987.193 353.908L1281.95 353.907" stroke="#FF8EF4" stroke-width="3"/>
<path d="M844.105 337.586L853.105 337.527L861.147 343.975L878.647 343.862L878.682 349.278M844.27 363.042L853.27 362.984L861.217 354.808L878.717 354.694L878.682 349.278M878.682 349.278L955.18 348.783L986.455 313.915L1280.95 313.914" stroke="#FF8EF4" stroke-width="3"/>
<path d="M843.46 298.591L852.46 298.533L860.502 304.98L878.002 304.867L878.037 310.283M843.625 324.047L852.625 323.989L860.572 315.813L878.072 315.699L878.037 310.283M878.037 310.283L954.535 309.788L985.81 274.92L1280.95 274.92" stroke="#FF8EF4" stroke-width="3"/>
<path d="M842.152 219.6L851.152 219.541L859.194 225.989L876.693 225.876L876.728 231.292M842.317 245.056L851.316 244.997L859.264 236.821L876.763 236.708L876.728 231.292M876.728 231.292L953.227 230.797L984.502 195.929L1282.95 195.93" stroke="#FF8EF4" stroke-width="3"/>
<path d="M842.799 258.594L851.798 258.536L859.84 264.984L877.34 264.871L877.375 270.287M842.963 284.051L851.963 283.992L859.91 275.816L877.41 275.703L877.375 270.287M877.375 270.287L953.873 269.792L985.148 234.924L1282.95 234.926" stroke="#FF8EF4" stroke-width="3"/>
<path d="M652.53 210.5V201.5L658.03 195V178.5H664.03M677.03 210.5V201.5L670.03 195V178.5H664.03M664.03 178.5V102L697.03 69.5V0" stroke="#FF8EF4" stroke-width="3"/>
<path d="M808.53 210.5V204.165L814.092 199.59V187.976H820.159M833.305 210.5V204.165L826.226 199.59V187.976H820.159M820.159 187.976V134.129L853.53 111.252V2" stroke="#FF8EF4" stroke-width="3"/>
<path d="M769.455 211V204.186L775.016 199.265V186.774H781.084M794.23 211V204.186L787.151 199.265V186.774H781.084M781.084 186.774V128.858L814.455 104.253V0" stroke="#FF8EF4" stroke-width="3"/>
<path d="M730.53 210.5V204.165L736.092 199.59V187.976H742.159M755.305 210.5V204.165L748.226 199.59V187.976H742.159M742.159 187.976V134.129L775.53 111.252V0.5" stroke="#FF8EF4" stroke-width="3"/>
<path d="M690.53 210.5V202.592L696.092 196.881V182.383H702.159M715.305 210.5V202.592L708.226 196.881V182.383H702.159M702.159 182.383V115.167L735.53 86.6116V2.5" stroke="#FF8EF4" stroke-width="3"/>
</svg>
