<svg width="1196" height="644" viewBox="0 0 1196 644" fill="none" xmlns="http://www.w3.org/2000/svg">
<path d="M1.95459 1.5H1193.95V642.5H1.95459V1.5Z" stroke="#FF8EF4" stroke-width="3"/>
<path d="M793.318 62L770.818 87.5L742.318 62M793.318 62L783.318 110C808.318 148.167 858.318 225.9 858.318 231.5C858.318 237.1 848.651 258.167 843.818 268L805.818 281M793.318 62H742.318M805.818 281L818.818 245.5L793.318 173.5L753.818 110L742.318 62M805.818 281L764.318 274.5V254L742.318 224.5L729.318 216H720.818M742.318 62L672.318 83L632.318 137.5L567.502 201.5M388.318 168.5L501.318 216H552.818L567.502 201.5M388.318 168.5L461.318 158.5L567.502 201.5M388.318 168.5L359.818 211.5C355.984 273.333 354.018 410.8 376.818 466L432.818 503.5M432.818 503.5L445.318 473.5L421.318 380L461.318 327L501.318 332.5M432.818 503.5L487.818 473.5C502.618 467.9 507.318 441.833 507.818 429.5L487.818 340.5L501.318 332.5M501.318 332.5L558.318 371L552.818 546.5L639.318 581M639.318 581L650.818 520.5L639.318 295L683.818 216H720.818M639.318 581L683.818 541L672.318 400.5L710.818 274.5L716.318 245.5L720.818 216" stroke="#A6FFFA" stroke-width="3"/>
</svg>
