<svg width="92" height="722" viewBox="0 0 92 722" fill="none" xmlns="http://www.w3.org/2000/svg">
<path d="M64.1327 75.3056L60.8834 77.6384L68.1426 87.7494L68.1327 75.3024L64.1327 75.3056ZM64.094 26.5856L64.0908 22.5856L60.0908 22.5888L60.094 26.5888L64.094 26.5856ZM83.894 26.5698L87.894 26.5667L87.8908 22.5667L83.8908 22.5698L83.894 26.5698ZM83.9579 106.97L83.9611 110.97L87.9611 110.967L87.9579 106.967L83.9579 106.97ZM64.1579 106.986L60.9167 109.33L62.1154 110.987L64.1611 110.986L64.1579 106.986ZM27.0371 55.6551L30.2783 53.3111L23.0272 43.2843L23.0371 55.6583L27.0371 55.6551ZM27.0779 107.015L27.0811 111.015L31.0811 111.012L31.0779 107.012L27.0779 107.015ZM7.27795 107.031L3.27796 107.034L3.28114 111.034L7.28114 111.031L7.27795 107.031ZM7.21399 26.6308L7.21081 22.6308L3.21081 22.634L3.21399 26.634L7.21399 26.6308ZM29.174 26.6134L32.4233 24.2805L31.2252 22.6117L29.1708 22.6134L29.174 26.6134ZM68.1327 75.3024L68.094 26.5824L60.094 26.5888L60.1327 75.3088L68.1327 75.3024ZM64.0972 30.5856L83.8971 30.5698L83.8908 22.5698L64.0908 22.5856L64.0972 30.5856ZM79.894 26.573L79.9579 106.973L87.9579 106.967L87.894 26.5667L79.894 26.573ZM83.9548 102.97L64.1548 102.986L64.1611 110.986L83.9611 110.97L83.9548 102.97ZM67.3992 104.642L30.2783 53.3111L23.7958 57.9991L60.9167 109.33L67.3992 104.642ZM23.0371 55.6583L23.078 107.018L31.0779 107.012L31.0371 55.6519L23.0371 55.6583ZM27.0748 103.015L7.27477 103.031L7.28114 111.031L27.0811 111.015L27.0748 103.015ZM11.278 107.028L11.214 26.6277L3.21399 26.634L3.27796 107.034L11.278 107.028ZM7.21717 30.6308L29.1772 30.6134L29.1708 22.6134L7.21081 22.6308L7.21717 30.6308ZM25.9247 28.9462L60.8834 77.6384L67.382 72.9727L32.4233 24.2805L25.9247 28.9462ZM70.0325 250.981L70.0357 254.981L74.0357 254.978L74.0325 250.978L70.0325 250.981ZM7.39252 251.031L3.39252 251.034L3.3957 255.034L7.3957 255.031L7.39252 251.031ZM7.32855 170.631L7.32537 166.631L3.32537 166.634L3.32855 170.634L7.32855 170.631ZM69.9685 170.581L73.9685 170.578L73.9654 166.578L69.9654 166.581L69.9685 170.581ZM69.9838 189.781L69.987 193.781L73.987 193.778L73.9838 189.778L69.9838 189.781ZM27.1438 189.815L27.1406 185.815L23.1406 185.818L23.1438 189.818L27.1438 189.815ZM27.153 201.335L23.153 201.338L23.1562 205.338L27.1562 205.335L27.153 201.335ZM63.993 201.306L67.993 201.303L67.9898 197.303L63.9898 197.306L63.993 201.306ZM64.0073 219.306L64.0105 223.306L68.0105 223.303L68.0073 219.303L64.0073 219.306ZM27.1673 219.335L27.1641 215.335L23.1641 215.338L23.1673 219.338L27.1673 219.335ZM27.1772 231.815L23.1772 231.818L23.1804 235.818L27.1804 235.815L27.1772 231.815ZM70.0172 231.781L74.0172 231.778L74.014 227.778L70.014 227.781L70.0172 231.781ZM70.0293 246.981L7.38934 247.031L7.3957 255.031L70.0357 254.981L70.0293 246.981ZM11.3925 251.028L11.3286 170.628L3.32855 170.634L3.39252 251.034L11.3925 251.028ZM7.33174 174.631L69.9717 174.581L69.9654 166.581L7.32537 166.631L7.33174 174.631ZM65.9685 170.584L65.9838 189.784L73.9838 189.778L73.9685 170.578L65.9685 170.584ZM69.9806 185.781L27.1406 185.815L27.147 193.815L69.987 193.781L69.9806 185.781ZM23.1438 189.818L23.153 201.338L31.153 201.332L31.1438 189.812L23.1438 189.818ZM27.1562 205.335L63.9962 205.306L63.9898 197.306L27.1498 197.335L27.1562 205.335ZM59.993 201.309L60.0073 219.309L68.0073 219.303L67.993 201.303L59.993 201.309ZM64.0041 215.306L27.1641 215.335L27.1705 223.335L64.0105 223.306L64.0041 215.306ZM23.1673 219.338L23.1772 231.818L31.1772 231.812L31.1673 219.332L23.1673 219.338ZM27.1804 235.815L70.0204 235.781L70.014 227.781L27.1741 227.815L27.1804 235.815ZM66.0172 231.784L66.0325 250.984L74.0325 250.978L74.0172 231.778L66.0172 231.784ZM80.2831 314.573L83.6881 316.672L87.4513 310.567L80.2799 310.573L80.2831 314.573ZM61.7071 344.708L58.302 342.609L54.6312 348.564L61.6252 348.707L61.7071 344.708ZM78.6671 394.974L78.6702 398.974L82.6702 398.971L82.6671 394.971L78.6671 394.974ZM58.8671 394.99L54.8671 394.993L54.8703 398.993L58.8703 398.99L58.8671 394.99ZM27.2819 363.335L27.2787 359.335L23.2787 359.338L23.2819 363.338L27.2819 363.335ZM27.3071 395.015L27.3103 399.015L31.3103 399.012L31.3071 395.012L27.3071 395.015ZM7.50708 395.031L3.50708 395.034L3.51027 399.034L7.51027 399.031L7.50708 395.031ZM7.44312 314.631L7.43994 310.631L3.43994 310.634L3.44312 314.634L7.44312 314.631ZM27.2431 314.615L31.2431 314.612L31.2399 310.612L27.2399 310.615L27.2431 314.615ZM27.2671 344.735L23.2671 344.738L23.2703 348.738L27.2703 348.735L27.2671 344.735ZM40.3471 344.725L40.3503 348.725L42.6042 348.723L43.7702 346.794L40.3471 344.725ZM58.5631 314.59L58.5599 310.59L56.306 310.592L55.1399 312.521L58.5631 314.59ZM76.8781 312.474L58.302 342.609L65.1121 346.807L83.6881 316.672L76.8781 312.474ZM61.6252 348.707C66.5699 348.808 69.5998 350.18 71.4528 352.201C73.3508 354.271 74.6374 357.696 74.6418 363.177L82.6418 363.171C82.6365 356.573 81.0959 350.88 77.3489 346.794C73.557 342.659 68.1244 340.838 61.789 340.708L61.6252 348.707ZM74.6418 363.177L74.6671 394.977L82.6671 394.971L82.6418 363.171L74.6418 363.177ZM78.6639 390.974L58.8639 390.99L58.8703 398.99L78.6702 398.974L78.6639 390.974ZM62.8671 394.987L62.8454 367.747L54.8454 367.753L54.8671 394.993L62.8671 394.987ZM62.8454 367.747C62.8437 365.623 62.2901 363.302 60.4909 361.553C58.7116 359.823 56.3889 359.312 54.2787 359.314L54.2851 367.314C54.7327 367.313 54.9645 367.369 55.0453 367.395C55.1079 367.415 55.0284 367.4 54.9146 367.289C54.7984 367.176 54.767 367.081 54.7755 367.106C54.791 367.151 54.8451 367.344 54.8454 367.753L62.8454 367.747ZM54.2787 359.314L27.2787 359.335L27.2851 367.335L54.2851 367.314L54.2787 359.314ZM23.2819 363.338L23.3071 395.018L31.3071 395.012L31.2819 363.332L23.2819 363.338ZM27.3039 391.015L7.5039 391.031L7.51027 399.031L27.3103 399.015L27.3039 391.015ZM11.5071 395.028L11.4431 314.628L3.44312 314.634L3.50708 395.034L11.5071 395.028ZM7.4463 318.631L27.2463 318.615L27.2399 310.615L7.43994 310.631L7.4463 318.631ZM23.2431 314.618L23.2671 344.738L31.2671 344.732L31.2431 314.612L23.2431 314.618ZM27.2703 348.735L40.3503 348.725L40.3439 340.725L27.2639 340.735L27.2703 348.735ZM43.7702 346.794L61.9863 316.659L55.1399 312.521L36.9239 342.655L43.7702 346.794ZM58.5663 318.59L80.2863 318.573L80.2799 310.573L58.5599 310.59L58.5663 318.59ZM70.5577 458.581L74.5577 458.577L74.5545 454.577L70.5545 454.581L70.5577 458.581ZM70.5729 477.781L70.5761 481.781L74.5761 481.777L74.5729 477.777L70.5729 477.781ZM26.2938 478.896L23.6156 475.925L23.5375 475.995L23.4631 476.07L26.2938 478.896ZM28.9394 485.974L27.943 489.848L27.9965 489.861L28.0504 489.874L28.9394 485.974ZM57.2646 492.431L58.1834 488.538L58.1685 488.535L58.1537 488.531L57.2646 492.431ZM71.1913 500.82L74.3598 498.379L74.3598 498.379L71.1913 500.82ZM69.416 531.902L66.488 529.176L69.416 531.902ZM7.26165 539.031L3.26165 539.034L3.26483 543.034L7.26483 543.031L7.26165 539.031ZM7.24637 519.831L7.24319 515.831L3.24319 515.834L3.24637 519.834L7.24637 519.831ZM53.9253 518.474L56.756 521.3L56.8174 521.239L56.8761 521.174L53.9253 518.474ZM51.1594 511.036L50.2583 514.933L50.3069 514.944L50.3559 514.955L51.1594 511.036ZM22.7141 504.459L21.7954 508.352L21.8042 508.354L21.813 508.356L22.7141 504.459ZM8.78747 496.07L5.61891 498.511L5.61892 498.511L8.78747 496.07ZM10.4432 465.588L13.3492 468.337L13.3611 468.324L13.373 468.312L10.4432 465.588ZM28.4409 462.614L70.5609 462.581L70.5545 454.581L28.4345 454.614L28.4409 462.614ZM66.5577 458.584L66.5729 477.784L74.5729 477.777L74.5577 458.577L66.5577 458.584ZM70.5698 473.781L29.7698 473.813L29.7761 481.813L70.5761 481.781L70.5698 473.781ZM29.7698 473.813C27.6673 473.815 25.403 474.314 23.6156 475.925L28.972 481.867C28.7835 482.037 28.8386 481.814 29.7761 481.813L29.7698 473.813ZM23.4631 476.07C21.9157 477.62 21.2144 479.595 21.216 481.66L29.216 481.653C29.216 481.588 29.2212 481.554 29.2226 481.546C29.2238 481.539 29.2219 481.553 29.2109 481.581C29.1998 481.61 29.1838 481.641 29.1642 481.671C29.1448 481.701 29.129 481.717 29.1245 481.722L23.4631 476.07ZM21.216 481.66C21.2175 483.558 21.7645 485.458 23.1192 487.028C24.4295 488.548 26.182 489.395 27.943 489.848L29.9359 482.1C29.2164 481.915 29.108 481.723 29.1772 481.803C29.2114 481.843 29.2331 481.888 29.2393 481.906C29.2425 481.916 29.2162 481.845 29.216 481.653L21.216 481.66ZM28.0504 489.874L56.3755 496.331L58.1537 488.531L29.8285 482.074L28.0504 489.874ZM56.3458 496.324C61.71 497.59 65.4823 499.964 68.0227 503.261L74.3598 498.379C70.4936 493.361 64.9815 490.142 58.1834 488.538L56.3458 496.324ZM68.0227 503.261C70.6841 506.716 71.999 510.576 72.0025 514.979L80.0025 514.973C79.9976 508.817 78.1051 503.24 74.3598 498.379L68.0227 503.261ZM72.0025 514.979C72.007 520.546 70.1819 525.207 66.488 529.176L72.344 534.627C77.4426 529.149 80.0085 522.527 80.0025 514.973L72.0025 514.979ZM66.488 529.176C62.9987 532.925 58.072 534.991 51.1785 534.996L51.1848 542.996C59.8112 542.989 67.0408 540.325 72.344 534.627L66.488 529.176ZM51.1785 534.996L7.25847 535.031L7.26483 543.031L51.1848 542.996L51.1785 534.996ZM11.2616 539.028L11.2464 519.828L3.24637 519.834L3.26165 539.034L11.2616 539.028ZM7.24956 523.831L50.4495 523.797L50.4432 515.797L7.24319 515.831L7.24956 523.831ZM50.4495 523.797C52.77 523.795 55.0086 523.05 56.756 521.3L51.0946 515.648C51.0535 515.689 51.0237 515.708 50.9745 515.726C50.9143 515.749 50.7551 515.796 50.4432 515.797L50.4495 523.797ZM56.8761 521.174C58.3137 519.604 59.2446 517.632 59.2428 515.35L51.2428 515.356C51.2428 515.376 51.2421 515.386 51.229 515.417C51.212 515.458 51.1523 515.579 50.9745 515.773L56.8761 521.174ZM59.2428 515.35C59.2412 513.355 58.6277 511.372 57.1265 509.785C55.6961 508.273 53.8144 507.497 51.9629 507.118L50.3559 514.955C51.2248 515.133 51.3839 515.356 51.3147 515.282C51.2746 515.24 51.2409 515.182 51.2262 515.142C51.2153 515.111 51.2427 515.167 51.2428 515.356L59.2428 515.35ZM52.0605 507.139L23.6153 500.562L21.813 508.356L50.2583 514.933L52.0605 507.139ZM23.6329 500.566C18.2687 499.3 14.4964 496.925 11.956 493.628L5.61892 498.511C9.48513 503.529 14.9973 506.747 21.7954 508.352L23.6329 500.566ZM11.956 493.628C9.28572 490.163 7.97973 486.339 7.9763 482.03L-0.0236978 482.037C-0.0188519 488.128 1.88261 493.662 5.61891 498.511L11.956 493.628ZM7.9763 482.03C7.97201 476.632 9.75077 472.142 13.3492 468.337L7.53722 462.84C2.50293 468.162 -0.0295868 474.635 -0.0236978 482.037L7.9763 482.03ZM13.373 468.312C16.7765 464.65 21.6179 462.62 28.4409 462.614L28.4345 454.614C19.8975 454.621 12.7426 457.24 7.51348 462.865L13.373 468.312ZM3.35225 602.634L3.34907 598.634L-0.650932 598.637L-0.647749 602.637L3.35225 602.634ZM75.2322 602.577L79.2322 602.574L79.229 598.574L75.2291 598.577L75.2322 602.577ZM75.2475 621.777L75.2507 625.777L79.2507 625.774L79.2475 621.774L75.2475 621.777ZM49.2075 621.798L49.2043 617.798L45.2043 617.801L45.2075 621.801L49.2075 621.798ZM49.2562 682.998L49.2594 686.998L53.2594 686.994L53.2562 682.994L49.2562 682.998ZM29.4562 683.013L25.4562 683.017L25.4594 687.017L29.4594 687.013L29.4562 683.013ZM29.4075 621.813L33.4075 621.81L33.4043 617.81L29.4043 617.813L29.4075 621.813ZM3.36752 621.834L-0.632474 621.837L-0.629292 625.837L3.37071 625.834L3.36752 621.834ZM3.35543 606.634L75.2354 606.577L75.2291 598.577L3.34907 598.634L3.35543 606.634ZM71.2322 602.58L71.2475 621.78L79.2475 621.774L79.2322 602.574L71.2322 602.58ZM75.2443 617.777L49.2043 617.798L49.2107 625.798L75.2507 625.777L75.2443 617.777ZM45.2075 621.801L45.2562 683.001L53.2562 682.994L53.2075 621.794L45.2075 621.801ZM49.253 678.998L29.453 679.013L29.4594 687.013L49.2594 686.998L49.253 678.998ZM33.4562 683.01L33.4075 621.81L25.4075 621.817L25.4562 683.017L33.4562 683.01ZM29.4043 617.813L3.36434 617.834L3.37071 625.834L29.4107 625.813L29.4043 617.813ZM7.36752 621.831L7.35225 602.631L-0.647749 602.637L-0.632474 621.837L7.36752 621.831Z" fill="#A6FFFA"/>
<path d="M63 24.0001H84V107H63" stroke="white" stroke-width="3"/>
<path d="M72 176V191.5H37" stroke="white" stroke-width="2"/>
<path d="M36.32 230H71V253H20" stroke="white" stroke-width="2"/>
<path d="M58 312H81L61.3824 345.125C67.9216 344.292 81 346.875 81 363.875C81 380.875 81 393.042 81 397H58" stroke="white" stroke-width="2"/>
<path d="M66 223V197" stroke="white" stroke-width="2"/>
<path d="M72 465V480H36" stroke="white" stroke-width="2"/>
<path d="M68 494C74.0766 498.445 83.1751 512.667 70.9562 534" stroke="white" stroke-width="2"/>
<path d="M4.99072 541.349H51.0092" stroke="white" stroke-width="2"/>
<path d="M78 603V623.873H51V681" stroke="white" stroke-width="3"/>
</svg>
