<svg width="1199" height="787" viewBox="0 0 1199 787" fill="none" xmlns="http://www.w3.org/2000/svg">
<path d="M2.45459 646V2H1197.45V646H789.455" stroke="#FF8EF4" stroke-width="3"/>
<path d="M795.318 95L772.818 120.5L744.318 95M795.318 95L785.318 143C810.318 181.167 860.318 258.9 860.318 264.5C860.318 270.1 850.651 291.167 845.818 301L807.818 314M795.318 95H744.318M807.818 314L820.818 278.5L795.318 206.5L755.818 143L744.318 95M807.818 314L766.318 307.5V287L744.318 257.5L731.318 249H722.818M744.318 95L674.318 116L634.318 170.5L569.502 234.5M390.318 201.5L503.318 249H554.818L569.502 234.5M390.318 201.5L463.318 191.5L569.502 234.5M390.318 201.5L361.818 244.5C357.984 306.333 356.018 443.8 378.818 499L434.818 536.5M434.818 536.5L447.318 506.5L423.318 413L463.318 360L503.318 365.5M434.818 536.5L489.818 506.5C504.618 500.9 509.318 474.833 509.818 462.5L489.818 373.5L503.318 365.5M503.318 365.5L560.318 404L554.818 579.5L641.318 614M641.318 614L652.818 553.5L641.318 328L685.818 249H722.818M641.318 614L685.818 574L674.318 433.5L712.818 307.5L718.318 278.5L722.818 249" stroke="#A6FFFA" stroke-width="3"/>
<path d="M3.95459 645.118V3.70689L788.955 105.416V785.209L3.95459 645.118Z" fill="black" stroke="#FF8EF4" stroke-width="3"/>
<path d="M73.6289 165.712L73.6289 71.8689L593.6 144.15L593.6 245.253L73.6289 165.712Z" stroke="#FF8EF4" stroke-width="3"/>
</svg>
