<svg width="1280" height="1660" viewBox="0 0 1280 1660" fill="none" xmlns="http://www.w3.org/2000/svg">
<path d="M486 166L420 240V382M486 166V326M486 166L626 196M420 382L486 326M420 382V880H486M486 326V880M626 196V102L690 44L866 58V410M626 196V210M626 454L690 394M626 454V376M626 454V880M690 394L866 410M690 394V547M866 410L919 376M866 410V534M486 880H566M566 368L494 418V262L566 196M566 368V196M566 368L626 376M566 368V880M566 196L626 210M626 210V376M566 880H626M690 880H626M690 880V664M690 880H866M919 376V483M919 376L964 380.756M1042 389V491M1042 389L964 380.756M1042 389V292M1042 880V491M1042 880H1234M1042 880H919M866 534L919 509M866 534C806.241 560.198 767.108 563.153 690 547M866 534V648M919 509V483M919 509V648M919 483L1042 491M399 565V868H287M399 565H306M399 565V483L306 477M287 868V565M287 868H170M287 565H306M287 565V547M306 565V477M306 477L287 495V547M1234 2L1042 44V292M1234 2V880M1234 2H1282V880H1234M964 380.756V326L1042 292M690 547V664M690 664C756.736 686.91 802.27 684.465 866 664M919 648V880M919 648H866M919 880H866M170 547L138 586V681L106 716L99 740H86L74 760H39V807V853L170 868M170 547H206M170 547V868M206 547V515L217 495M206 547V586L217 570M217 495H261V547M217 495V570M217 570H261V547M261 547H287M866 648V664M866 664V880" stroke="#FF8EF4" stroke-width="3"/>
<path d="M692 46V396" stroke="#FF8EF4" stroke-width="3"/>
<path d="M1211.04 884L0.149649 1292.85" stroke="#1573FF" stroke-opacity="0.58" stroke-width="3"/>
<path d="M920 884L-8 1104" stroke="#1573FF" stroke-opacity="0.58" stroke-width="3"/>
<path d="M34.8403 905.83L44.1875 879.362C64.9496 870.411 112.932 852.033 138.767 850.13C144.648 849.697 152.88 849.224 162.469 848.739C195.001 847.095 243.157 845.313 268.154 844.467C274.641 844.505 290.687 845.411 302.976 848.734C308.573 850.247 322.407 855.373 338.253 861.254L339.036 861.545C366.527 871.749 399.719 884.069 406.507 883.772C415.133 883.394 540.551 897.207 602.181 904.161L615.704 914.185C618.701 942.364 622.386 999.981 613.153 1005.02C603.92 1010.05 595.896 1012.21 593.039 1012.65L379.156 975.69L386.932 959.908L403.439 945.673L479.659 955.849L478.676 938.037L425.938 922.491L336.818 933.148C335.162 935.794 334.029 941.376 342.74 942.539C351.451 943.702 350.09 1010.42 348.321 1043.63L338.07 1053.73L329.444 1054.11L320.818 1054.49L180.172 1012.8L96.6629 988.054L34.8403 905.83Z" fill="black"/>
<path d="M342.74 942.539C351.451 943.702 350.09 1010.42 348.321 1043.63L338.07 1053.73L329.444 1054.11M342.74 942.539C334.029 941.376 335.162 935.794 336.818 933.148M342.74 942.539L325.489 943.294M336.818 933.148L425.938 922.491L478.676 938.037M336.818 933.148L192.715 907.181M325.489 943.294C334.461 990.078 335.246 1014.31 329.444 1054.11M325.489 943.294L174.829 916.008M329.444 1054.11L320.818 1054.49L180.172 1012.8M593.039 1012.65C595.896 1012.21 603.92 1010.05 613.153 1005.02C622.386 999.981 618.701 942.364 615.704 914.185L602.181 904.161C540.551 897.207 415.133 883.394 406.507 883.772C399.654 884.072 365.893 871.513 338.253 861.254M593.039 1012.65C597.61 1004.09 606.635 984.843 606.167 976.37C605.583 965.779 609.288 915.431 592.796 910.363C579.602 906.307 463.319 894.797 406.826 889.549L453.387 910.673L498.179 919.329M593.039 1012.65L379.156 975.69L386.932 959.908L403.439 945.673L479.659 955.849M498.179 919.329L477.692 920.226L478.676 938.037M498.179 919.329L519.037 925.172L521.163 963.684L506.705 975.898L480.509 971.254L479.659 955.849M479.659 955.849L478.676 938.037M162.469 848.739C152.88 849.224 144.648 849.697 138.767 850.13C112.932 852.033 64.9496 870.411 44.1875 879.362L34.8403 905.83L96.6629 988.054L180.172 1012.8M162.469 848.739C195.001 847.095 243.157 845.313 268.154 844.467C274.641 844.505 290.687 845.411 302.976 848.734C308.573 850.247 322.407 855.373 338.253 861.254M162.469 848.739L190.134 860.428L191.941 893.163L241.152 903.556L374.48 890.964L382.786 884.81L338.253 861.254M162.469 848.739C146.312 856.275 113.749 874.665 112.753 887.943M192.715 907.181L91.1887 888.887L76.572 898.212L174.829 916.008M192.715 907.181C189.396 905.792 181.172 905.612 174.829 916.008M174.829 916.008L180.172 1012.8" stroke="#A6FFFA" stroke-width="3"/>
<path d="M350.507 991.036L390.843 984.489L407.133 988.557L421.022 987.949L420.759 983.18" stroke="#A6FFFA" stroke-width="3"/>
<path d="M284.66 912.642L295.777 916.936L381.258 908.414L386.422 903.407" stroke="#A6FFFA" stroke-width="3"/>
<path d="M42.6086 912.827L-0.608618 919.173" stroke="#1573FF" stroke-opacity="0.53" stroke-width="3"/>
<path d="M40.2702 853.243L-0.270493 860.757" stroke="#1573FF" stroke-opacity="0.53" stroke-width="3"/>
<path d="M620.784 919.392L1275.22 1016.61" stroke="#1573FF" stroke-opacity="0.58" stroke-width="3"/>
<path d="M2 1014L1280 1260" stroke="#1573FF" stroke-opacity="0.58" stroke-width="3"/>
<path d="M2 1140L1280 1450" stroke="#1573FF" stroke-opacity="0.58" stroke-width="3"/>
<path d="M2 1298L1280 1658" stroke="#1573FF" stroke-opacity="0.55" stroke-width="3"/>
<path d="M92 990L-18 1010" stroke="#1573FF" stroke-opacity="0.53" stroke-width="3"/>
<path d="M624 1474L1288 1122" stroke="#1573FF" stroke-opacity="0.47" stroke-width="3"/>
<path d="M1280 986L0 1498" stroke="#1573FF" stroke-opacity="0.42" stroke-width="3"/>
<path d="M955.243 1551.41L644.341 1120.49L1268.02 1121.85L955.243 1551.41Z" fill="url(#paint0_radial_232_5)" fill-opacity="0.56"/>
<path d="M734 1166H676L966 1566L734 1166Z" fill="url(#paint1_radial_232_5)" fill-opacity="0.82"/>
<path d="M1196 1167.02L1233.84 1167.02L944 1554L1196 1167.02Z" fill="url(#paint2_radial_232_5)" fill-opacity="0.82"/>
<defs>
<radialGradient id="paint0_radial_232_5" cx="0" cy="0" r="1" gradientUnits="userSpaceOnUse" gradientTransform="translate(955.996 1483.13) rotate(-89.9437) scale(505.374 634.444)">
<stop stop-color="#00FFF0"/>
<stop offset="1" stop-color="#00FFF0" stop-opacity="0"/>
</radialGradient>
<radialGradient id="paint1_radial_232_5" cx="0" cy="0" r="1" gradientUnits="userSpaceOnUse" gradientTransform="translate(821 1366) rotate(-136.644) scale(320.451 72.6725)">
<stop stop-color="#AFFFFA"/>
<stop offset="1" stop-color="white" stop-opacity="0"/>
</radialGradient>
<radialGradient id="paint2_radial_232_5" cx="0" cy="0" r="1" gradientUnits="userSpaceOnUse" gradientTransform="translate(1144 1390) rotate(111.199) scale(184.075 122.135)">
<stop stop-color="white"/>
<stop offset="1" stop-color="#A6FFFA" stop-opacity="0"/>
</radialGradient>
</defs>
</svg>
