<svg width="1088" height="580" viewBox="0 0 1088 580" fill="none" xmlns="http://www.w3.org/2000/svg">
<rect x="2" y="2" width="1084" height="576" rx="13" stroke="#A6FFFA" stroke-width="4"/>
<path d="M387.51 410H1083.69C1084.38 458.369 1085.54 557.2 1084.72 565.57C1083.69 576.033 1077.55 576.033 1072.42 577.397C1068.33 578.489 614.107 577.852 387.51 577.397V410ZM387.51 410H390" stroke="#A6FFFA" stroke-width="4"/>
<path d="M229.581 294.789L234.356 308.163L247.089 311.614H270.565L282.901 308.163L293.246 294.789M271.308 367.5L267.575 379.349M257.435 410L267.575 379.349M267.575 379.349C269.5 382.081 273.351 388.84 273.351 394.017C273.351 399.194 273.351 405.83 273.351 410M283.974 261C290.076 264.739 301.363 275.115 302 282.709M273.351 282.709L265.393 287.023L257.435 282.709L226 292.2H249.476L260.618 294.789L265.393 292.2H273.351H293.246L273.351 282.709Z" stroke="#A6FFFA" stroke-width="2"/>
<path d="M239 261C230.929 266.25 212.01 278.2 207 288" stroke="#A6FFFA" stroke-width="2"/>
<path d="M107 247C110.742 267.73 116.845 311.973 111.318 323.107C105.791 334.24 117.803 384.341 125 410" stroke="#A6FFFA" stroke-width="2"/>
<path d="M310.455 32C316.938 37.7502 329.255 51.1482 326.662 58.7384C324.069 66.3287 322.34 73.9764 321.8 76.8515M321.8 76.8515C322.88 70.5263 323.583 57.1859 317.748 54.4258C310.455 50.9757 315.317 40.6253 300.73 42.3504C286.144 44.0754 278.04 35.4501 269.126 42.3504C267.235 44.0754 260.86 46.4905 250.487 42.3504C240.115 38.2102 223.475 37.7502 216.452 38.0377M321.8 76.8515C325.041 92.6646 330.552 125.153 326.662 128.603C322.772 132.053 325.041 143.841 326.662 149.304L325.69 153.617M216.452 38.0377C222.394 41.7753 233.632 52.0107 231.038 63.0511M216.452 38.0377C211.319 39.4753 200.082 43.5579 196.192 48.3881C191.33 54.4258 181.46 48.2438 168.64 63.0511C157.201 76.2631 138.794 87.6222 144.329 99.2773C150.108 111.449 162.157 117.39 156.484 124.291C150.812 131.191 141.087 151.029 138.656 163.105C136.711 172.765 134.604 199.331 133.794 211.406L126.501 222.619L120.018 184.668L112.724 170.867C109.483 168.28 101.865 163.105 97.3272 163.105C91.6546 163.105 75.4472 165.692 73.0161 175.18C70.585 184.668 76.2576 211.406 81.9302 222.619C87.6028 233.832 90.0339 239.007 97.3272 240.732C104.621 242.457 98.948 245.045 112.724 248.495C123.745 251.255 124.34 246.77 123.259 244.182C123.168 254.039 122.042 279.017 126.501 285.584C131.634 293.146 184.847 354.586 196.192 358.036C207.538 361.486 211.589 371.837 231.038 371.837C250.487 371.837 266.695 373.562 274.798 365.799C282.902 358.036 300.73 328.71 305.592 318.36C310.455 308.009 321.8 257.12 321.8 240.732C317.748 230.382 326.662 223.482 326.662 211.406C326.662 201.746 323.421 180.355 321.8 170.867L324.523 158.792M112.724 32C105.701 34.8751 90.6823 44.2479 86.7925 58.7384C81.9302 76.8515 68.9643 73.4014 67.3436 86.3394C65.7228 99.2773 73.0161 78.5766 73.0161 103.59C73.0161 123.601 65.3033 134.31 67.3436 128.603C69.3839 122.896 84.1074 129.507 73.0161 138.954C79.3423 138.52 81.2248 147.811 82.3239 165.5M325.69 153.617C323.178 150.742 317.505 144.474 314.912 142.404C312.319 140.334 299.785 143.266 293.842 144.991L284.118 153.617L288.17 156.636L312.076 153.617L324.523 158.792M325.69 153.617L324.523 158.792M255.35 149.304C226.752 146.671 217.364 147.214 204.296 149.304C204.296 149.304 171.765 165.213 180.795 163.105C189.826 160.996 204.296 158.792 204.296 158.792C204.296 158.792 229.82 156.555 250.487 158.792L255.35 149.304ZM238.737 178.63C237.791 178.63 234.928 177.077 231.038 170.867C227.149 164.657 220.234 164.83 217.262 165.692L190.925 178.63C195.922 179.493 207.051 181.649 211.59 183.374C216.128 185.099 228.067 180.93 233.47 178.63H238.737Z" stroke="#A6FFFA" stroke-width="2"/>
<path d="M305 164C305 164 298.605 161.714 294.986 162.081C288.18 162.772 278.917 171.707 275.136 176.744H281.618L294.986 180.198C298.092 179.047 304.708 176.053 306.329 173.29M305 164C305 164 310 167 312 170.268L306.329 173.29M305 164C305 164 307.949 170.527 306.329 173.29M285.835 152C282.595 154.446 271.652 162.325 270.68 170.268C269.708 178.212 282.968 216.462 289.72 234.593C289.315 238.335 287.532 246.595 283.643 249.703C278.782 253.589 272.301 260.064 268.655 260.928C265.738 261.618 262.038 257.186 260.553 254.884L264.199 249.703L260.553 243.659C258.932 242.364 254.962 240.551 252.046 243.659C248.4 247.545 244.349 252.294 247.185 254.884C250.02 257.474 242.729 260.928 239.893 260.928C237.057 260.928 233.006 255.747 234.222 249.703C235.437 243.659 235.437 238.479 239.893 234.593" stroke="#A6FFFA" stroke-width="2"/>
<line y1="-2" x2="16.727" y2="-2" transform="matrix(-0.482329 0.87599 0.84669 0.532087 234.86 352.803)" stroke="#A6FFFA" stroke-width="4"/>
<line y1="-2" x2="16.727" y2="-2" transform="matrix(-0.482329 0.87599 0.84669 0.532087 213.077 345.046)" stroke="#A6FFFA" stroke-width="4"/>
<line y1="-2" x2="16.727" y2="-2" transform="matrix(-0.482329 0.87599 0.84669 0.532087 259.064 345.908)" stroke="#A6FFFA" stroke-width="4"/>
<line y1="-2" x2="16.727" y2="-2" transform="matrix(-0.482329 0.87599 0.84669 0.532087 277.62 345.908)" stroke="#A6FFFA" stroke-width="4"/>
<path d="M282 256.108C283.214 256.785 285.514 258.613 285 260.508C284.486 262.404 286.786 258.365 288 256.108C287.525 253.033 286.93 251.449 285 249" stroke="#A6FFFA" stroke-width="2"/>
<path d="M293 170.5C293 173.977 295.184 176 297 176C298.816 176 301 173.977 301 170.5C301 167.023 298.816 165 297 165C295.184 165 293 167.023 293 170.5Z" stroke="#A6FFFA" stroke-width="4"/>
<circle r="6" transform="matrix(-1 0 0 1 217 174)" stroke="#A6FFFA" stroke-width="4"/>
<line y1="-2" x2="16.727" y2="-2" transform="matrix(-0.482329 0.87599 0.84669 0.532087 226.792 312.293)" stroke="#A6FFFA" stroke-width="4"/>
<line y1="-2" x2="16.727" y2="-2" transform="matrix(-0.482329 0.87599 0.84669 0.532087 264.711 323.498)" stroke="#A6FFFA" stroke-width="4"/>
<line y1="-2" x2="16.2878" y2="-2" transform="matrix(0.795024 0.606577 0.555747 -0.831352 271.146 270.721)" stroke="#A6FFFA" stroke-width="4"/>
<line y1="-2" x2="16.2878" y2="-2" transform="matrix(0.795024 0.606577 0.555747 -0.831352 282.42 269.197)" stroke="#A6FFFA" stroke-width="4"/>
<line y1="-2" x2="16.2878" y2="-2" transform="matrix(0.795024 0.606577 0.555747 -0.831352 295.329 283.849)" stroke="#A6FFFA" stroke-width="4"/>
<line y1="-2" x2="16.1945" y2="-2" transform="matrix(-0.849224 0.528033 0.478399 0.878143 244.157 272.247)" stroke="#A6FFFA" stroke-width="4"/>
<line y1="-2" x2="16.5301" y2="-2" transform="matrix(-0.638618 0.769524 0.726021 0.687673 222.773 286.936)" stroke="#A6FFFA" stroke-width="4"/>
<line y1="-2" x2="16.1945" y2="-2" transform="matrix(-0.849224 0.528033 0.478399 0.878143 256.643 272.645)" stroke="#A6FFFA" stroke-width="4"/>
<line y1="-2" x2="16.965" y2="-2" transform="matrix(0.170432 0.985369 0.981067 -0.193671 203.563 328.499)" stroke="#A6FFFA" stroke-width="4"/>
<line y1="-2" x2="16.9681" y2="-2" transform="matrix(-0.16258 0.986695 0.982772 0.18482 138.617 217.298)" stroke="#A6FFFA" stroke-width="4"/>
<line y1="-2" x2="16.7901" y2="-2" transform="matrix(0.421698 0.906737 0.883279 -0.468848 162.743 240.468)" stroke="#A6FFFA" stroke-width="4"/>
<line y1="-2" x2="16.8069" y2="-2" transform="matrix(0.404224 0.91466 0.89285 -0.450354 145.943 225.74)" stroke="#A6FFFA" stroke-width="4"/>
<line y1="-2" x2="16.5195" y2="-2" transform="matrix(0.646093 0.763259 0.71918 -0.694824 180.309 259.014)" stroke="#A6FFFA" stroke-width="4"/>
<line y1="-2" x2="16.866" y2="-2" transform="matrix(0.335681 0.941976 0.926313 -0.376755 163.452 267.718)" stroke="#A6FFFA" stroke-width="4"/>
<line y1="-2" x2="16.374" y2="-2" transform="matrix(-0.742424 -0.669931 -0.620195 0.784447 150.954 299.99)" stroke="#A6FFFA" stroke-width="4"/>
<line y1="-2" x2="16.6378" y2="-2" transform="matrix(0.557926 0.82989 0.793361 -0.608752 185.845 284.272)" stroke="#A6FFFA" stroke-width="4"/>
<line y1="-2" x2="16.7305" y2="-2" transform="matrix(0.479169 0.877723 0.848729 -0.528827 185.697 330.393)" stroke="#A6FFFA" stroke-width="4"/>
<line y1="-2" x2="16.727" y2="-2" transform="matrix(-0.482329 0.87599 0.84669 0.532087 238.894 323.498)" stroke="#A6FFFA" stroke-width="4"/>
<line y1="-2" x2="16.9437" y2="-2" transform="matrix(0.216568 0.976268 0.969411 -0.245441 174.13 282.905)" stroke="#A6FFFA" stroke-width="4"/>
<line y1="-2" x2="16.7731" y2="-2" transform="matrix(0.438846 0.898563 0.873468 -0.486882 186.806 308.636)" stroke="#A6FFFA" stroke-width="4"/>
<line y1="-2" x2="16.7493" y2="-2" transform="matrix(0.461774 0.886998 0.859691 -0.510815 163.222 303.572)" stroke="#A6FFFA" stroke-width="4"/>
<line y1="-2" x2="16.8636" y2="-2" transform="matrix(0.338715 0.940889 0.924968 -0.380046 131.564 261.427)" stroke="#A6FFFA" stroke-width="4"/>
<line y1="-2" x2="23.2262" y2="-2" transform="matrix(0.521045 0.853529 0.820487 -0.571665 141.272 245.063)" stroke="#A6FFFA" stroke-width="4"/>
<line y1="-2" x2="16.727" y2="-2" transform="matrix(-0.482329 0.87599 0.84669 0.532087 217.111 305.397)" stroke="#A6FFFA" stroke-width="4"/>
<line y1="-2" x2="16.727" y2="-2" transform="matrix(-0.482329 0.87599 0.84669 0.532087 292.949 320.05)" stroke="#A6FFFA" stroke-width="4"/>
<line y1="-2" x2="16.727" y2="-2" transform="matrix(-0.482329 0.87599 0.84669 0.532087 225.985 331.255)" stroke="#A6FFFA" stroke-width="4"/>
<line y1="-2" x2="16.727" y2="-2" transform="matrix(-0.482329 0.87599 0.84669 0.532087 250.996 331.255)" stroke="#A6FFFA" stroke-width="4"/>
<path d="M271 371L369 394" stroke="#A6FFFA" stroke-width="2"/>
<path d="M110.5 325.5L29 346" stroke="#A6FFFA" stroke-width="2"/>
<rect x="31" y="30" width="340" height="380" stroke="#FF8EF4" stroke-width="4"/>
</svg>
