<svg width="308" height="103" viewBox="0 0 308 103" fill="none" xmlns="http://www.w3.org/2000/svg">
<path d="M161.571 49.9106C166.091 50.676 165.85 81.5242 165.164 96.8526L159.924 101.261L155.459 101.211M161.571 49.9106C157.051 49.1453 157.599 46.5904 158.438 45.4087M161.571 49.9106L152.64 49.8105M158.438 45.4087L204.527 42.7987L231.953 51.3698M158.438 45.4087L83.615 29.6326M152.64 49.8105C157.613 71.701 158.188 82.9385 155.459 101.211M152.64 49.8105L74.4112 33.2524M155.459 101.211L150.994 101.161L77.8512 78.199M291.709 88.8912C293.186 88.7588 297.327 87.9715 302.075 85.8806C306.823 83.7898 304.514 57.0225 302.766 43.9002L295.691 38.9073C263.719 34.082 198.659 24.4189 194.194 24.3688C190.646 24.329 173.071 17.6356 158.682 12.1662M291.709 88.8912C294.018 85.0458 298.559 76.3715 298.258 72.4373C297.881 67.5196 299.451 44.3097 290.873 41.5334C284.011 39.3124 223.698 30.9532 194.399 27.0512L218.663 38.0436L241.925 43.218M291.709 88.8912L180.665 66.2053L184.583 59.1023L193.034 52.9435L232.586 59.6405M241.925 43.218L231.32 43.0991L231.953 51.3698M241.925 43.218L252.77 46.4664L254.138 64.349L246.735 69.6262L233.133 66.7936L232.586 59.6405M232.586 59.6405L231.953 51.3698M67.5417 1.79116C62.5783 1.76559 58.3178 1.76985 55.2744 1.81707C41.9056 2.02452 17.1788 9.28132 6.48649 12.8838L1.82859 24.892L34.4229 64.5656L77.8512 78.199M67.5417 1.79116C84.3816 1.87791 109.313 2.30798 122.255 2.5681C125.616 2.75467 133.934 3.5924 140.322 5.45076C143.232 6.29725 150.434 9.03057 158.682 12.1662M67.5417 1.79116L81.9534 7.92308L83.1168 23.1234L108.679 29.2168L177.654 26.8634L181.914 24.2311L158.682 12.1662M67.5417 1.79116C59.2251 4.85828 42.486 12.5226 42.0621 18.6429M83.615 29.6326L30.8986 18.5177L23.3921 22.4537L74.4112 33.2524M83.615 29.6326C81.886 28.903 77.6248 28.6053 74.4112 33.2524M74.4112 33.2524L77.8512 78.199" stroke="#A6FFFA" stroke-width="2"/>
<path d="M167.654 72.5816L187.51 70.5915L195.584 72.8948L202.435 72.9716L202.266 70.7569" stroke="#A6FFFA" stroke-width="2"/>
<path d="M131.279 34.5572L137.068 36.8348L181.286 35.1179L183.926 32.9347" stroke="#A6FFFA" stroke-width="2"/>
</svg>
