<svg width="218" height="106" viewBox="0 0 218 106" fill="none" xmlns="http://www.w3.org/2000/svg">
<path d="M103.014 52.1393C100.042 53.1927 105.531 73.8986 108.647 84.1198L113.005 86.458L116.062 85.892M103.014 52.1393C105.985 51.086 105.168 49.4341 104.388 48.7398M103.014 52.1393L109.129 51.0072M104.388 48.7398L72.2915 52.4806L54.9392 61.5116M104.388 48.7398L153.042 29.2148M109.129 51.0072C109.492 66.3138 111.036 73.9357 116.062 85.892M109.129 51.0072L159.986 30.5505M116.062 85.892L119.12 85.3259L165.38 61.1716M20.3827 93.8564C19.3456 93.9435 16.3664 93.908 12.7457 93.0687C9.12498 92.2294 6.0916 73.9624 5.02749 64.9339L9.02354 60.7344C30.144 53.6791 73.1493 39.4269 76.2068 38.8609C78.6359 38.4111 89.5487 31.8167 98.4843 26.4249M20.3827 93.8564C18.1342 91.5469 13.5193 86.2579 13.0472 83.5777C12.457 80.2273 7.37423 64.8139 12.7851 61.9251C17.1137 59.614 57.0844 46.8043 76.5287 40.6883L61.7646 50.9699L46.6853 57.2213M20.3827 93.8564L92.7152 65.3683L88.7993 61.0611L81.9334 57.9292L55.9317 67.1463M46.6853 57.2213L53.9467 55.8769L54.9392 61.5116M46.6853 57.2213L39.7994 60.6978L41.9453 72.8808L47.9396 75.5451L56.7901 72.0195L55.9317 67.1463M55.9317 67.1463L54.9392 61.5116M159.274 8.5847C162.678 7.97573 165.604 7.47061 167.702 7.1395C176.917 5.68499 195.148 7.61452 203.111 8.76109L208.381 16.2771L192.847 46.8299L165.38 61.1716M159.274 8.5847C147.726 10.6508 130.682 13.9125 121.84 15.6304C119.565 16.1564 113.998 17.7113 109.932 19.7221C108.08 20.638 103.607 23.3338 98.4843 26.4249M159.274 8.5847L150.437 14.4246L152.261 24.7802L135.76 31.9237L87.9941 38.5656L84.6148 37.3042L98.4843 26.4249M159.274 8.5847C165.514 9.6547 178.33 12.8105 179.677 16.8737M153.042 29.2148L187.321 15.4586L193.154 17.2092L159.986 30.5505M153.042 29.2148C154.103 28.5182 156.978 27.8101 159.986 30.5505M159.986 30.5505L165.38 61.1716" stroke="#A6FFFA" stroke-width="2"/>
<path d="M102.749 68.1033L88.7719 69.1331L83.6251 71.6439L78.9343 72.5124L78.6686 71.0036" stroke="#A6FFFA" stroke-width="2"/>
<path d="M121.164 38.2078L117.583 40.4288L86.9244 44.5469L84.7351 43.3943" stroke="#A6FFFA" stroke-width="2"/>
</svg>
